<svg xmlns="http://www.w3.org/2000/svg" width="1024" height="1024" viewBox="0 0 1024 1024"><path fill="#0c0d0f" d="M251 58c-2.492 2.492-4.68 3.075-8 4.25-11.91 4.505-23.302 11.913-32.258 21.055C209 85 209 85 207 85l-.817 1.825c-1.194 2.194-2.269 3.344-4.12 4.988-27.61 26.92-45.54 74.426-33.445 112.11 2.995 8.716 7.011 16.56 12.382 24.074l1.649 2.324c23.997 32.278 59.43 38.541 96.929 44.234 33.536 5.114 69.067 12.558 95.837 34.754 3.929 2.564 6.078 2.5 10.18.29 1.438-.98 1.438-.98 2.906-1.978 25.088-16.159 54.07-24.12 83.098-29.707l2.75-.533q2.564-.493 5.134-.954c11.247-2.115 17.995-7.472 21.518-18.43.686-2.925 1.278-5.868 1.875-8.813 2.095-10.209 5.618-19.68 13.125-27.188h2l-.105 3.7c-.315 15.518.709 37.965 15.62 47.215 7.904 3.454 16.603 4.728 25.024 6.347 23.925 4.657 48.458 10.868 69.71 23.238l2.063 1.17a143 143 0 0 1 10.376 6.518c5.757 3.15 9.675-.968 14.625-4.313 30.183-19.769 64.507-26.642 99.553-32.215 44.545-7.091 86.229-24.059 101.25-70.712 8.096-27.27 2.429-55.577-11.106-80.107a251 251 0 0 1-2.843-5.38C827.025 89.21 803.506 70.477 774 58.997v-1c14.89-.471 28.69-.37 43 4l2.4.715c54.55 16.636 95.719 60.929 113.6 114.28l1.176 3.344c21.616 64.763 5.862 138.36-42.176 186.66l-1.518 1.53c-21.475 21.357-48.509 34.44-76.256 45.692-41.854 16.998-76.408 47.412-87.226 92.777l-.487 1.998A413 413 0 0 0 724 519.995c31.097-10.033 52.003-32.741 67.188-60.7 1.813-3.3 1.813-3.3 3.813-6.3 10.652 10.652-2.153 50.948-6 63-1.976 5.498-4.472 10.74-7 16-8.84 18.655-15.79 36.687-20 56.938-3.196 15.188-7.946 25.875-19 37.062a375 375 0 0 0-4.313 4.625l-1.863 1.977c-4.485 5.896-6.522 12.286-8.262 19.398-2.878 10.923-6.999 19.837-18 24.438-9.72 1.535-16.273-2.006-23.562-8.438l-1-2-.41 3.051c-1.226 8.257-3.065 15.746-6.152 23.512-7.355 18.802-5.138 33.461 1.875 51.957 12.302 32.515-5.165 58.812-27.084 82.097a813 813 0 0 1-4.229 4.384l-2.25 2.336c-6.7 6.83-13.99 12.906-21.375 18.977l-2.092 1.744c-3.253 2.669-6.41 5.117-10.115 7.127-12.013 6.71-14.244 17.15-18.162 29.767-7.457 22.607-23.617 48.236-46.006 58.049l-2-1 1.723-1.66c11.25-11.551 16.49-25.168 16.277-41.34l-2.43 1.468c-6.095 3.594-12.096 6.839-18.64 9.547-20.579 8.555-24.62 26.746-30.316 46.872-.795 2.731-1.688 5.424-2.615 8.113h-1l-.882-3.594c-6.752-30.528-6.752-30.528-28.055-50.22-7.874-2.908-14.903-6.84-22.062-11.187-4.429 4.428-.002 16.82 1.668 21.789 3.345 8.065 8.488 14.798 14.332 21.21-16.055-2.128-28.446-20.936-36-34l-1.084-1.815c-4.634-7.823-8.162-15.678-11.133-24.281-6.242-18.14-6.242-18.14-20.783-29.903a135 135 0 0 1-5.063-3.938l-2.41-1.937c-3.977-3.344-7.783-6.867-11.586-10.406-2.623-2.439-5.309-4.798-8.004-7.156-20.734-18.717-48.513-50.05-40.375-80.062 2.457-8.043 5.572-15.833 8.745-23.616 4.717-12.833 1.173-25.646-3.308-37.884-3.324-9.252-5.38-18.33-7-28l-1.828 1.68-2.422 2.195-2.39 2.18c-6.144 5.065-13.284 5.379-20.734 2.757-9.525-6.576-13.56-15.723-16.332-26.582-2.28-8.913-5.53-16.55-13.043-22.355-15.427-12.498-18.637-32.862-22.066-51.199-2.425-12.32-7.627-23.248-12.812-34.628-12.36-27.455-21.225-57.675-16.372-88.048 3.069 3.71 5.073 7.864 7.25 12.125 5.68 10.883 12.305 19.944 20.75 28.875l2.117 2.313c10.115 10.67 25.231 21.37 39.883 24.688-11.752-54.551-44.532-85.938-95.112-107.27-24.126-10.2-45.107-21.486-64.888-38.725l-2.137-1.762c-23.934-19.92-39.979-47.696-48.863-77.238l-.627-2.055c-16.051-53.874-4.586-117.25 27.627-162.95l1.187-1.701c5.65-8.031 12.046-15.215 18.812-22.298l2.465-2.625c29.96-31.076 69.995-46.367 112.54-45.375z"></path><path fill="#487556" d="M510 259a66 66 0 0 1 3.188 7.125c2.154 5.1 5.513 9.463 8.812 13.875l1.767 2.462c7.513 8.539 21.202 10.176 31.824 12.322 24.946 5.08 52.1 11.565 73.409 26.216v2h3c-1.324 3.572-3.5 5.39-6.434 7.73-2.377 1.927-4.454 4.056-6.566 6.27l-1.774 1.824C604.068 352.893 594.05 370.19 596 390c1.29 3.559 1.29 3.559 4.813 4.5 7.455.015 13.86-7.225 19-12 19.404-17.305 42.296-18.652 65.75-9.188l2.02.882c4.202 1.738 6.412 2.104 10.417-.194l-3 1c-4.452-.45-8.118-2.403-12.062-4.375-13.357-6.416-27.525-9.096-42.188-6.313l-2.143.402c-6.035 1.144-12.023 2.456-18.01 3.833C618 369 618 369 617 368c.353-20.12 30.864-38.532 46.25-48 5.865-2.133 10.447.626 15.312 3.875l1.829 1.203c27.246 18.338 43.38 43.257 39.113 76.824-2.246 11.28-9.209 37.45-20.504 43.098 1.301-4.158 2.89-7.969 4.812-11.875 10.651-23.02 13.66-46.424 3.188-70.125l-.375 1.906c-1.784 7.4-4.915 11.21-10.625 16.094l-1.88 1.63-1.87 1.62c-20.335 17.663-45.32 48.29-38.5 77.5 2.013 5.114 6.236 7.875 10.508 11.098 3.474 2.727 6.019 5.694 8.742 9.153l-.84-2.23-1.098-2.958-1.09-2.918c-2.784-8.287-2.706-15.914 1.028-23.895l2-1-.106 2.09c-.294 10.22 2.438 16.964 7.36 25.777 8.703 15.615 22.059 40.85 10.336 58.223-4.434 4.958-9.232 8.983-14.59 12.91-3.722 2.75-5.781 4.948-8 9-2.124 3.318-4.1 6.332-7 9l-2.063 2.125c-4.133 4.146-8.568 7.981-12.938 11.875l-2-1 1.325-1.584c4.684-5.782 8.166-11.747 11.55-18.353 4.967-9.407 10.056-16.444 17.938-23.625 3.05-3.398 4.541-7.217 6.187-11.438l-2.683.437c-7.127 1.068-13.92 1.667-21.13 1.5-7.03-.137-14.922-.202-20.187 5.063l.84 1.828 1.097 2.422 1.09 2.39c1.924 4.667 2.135 8.667 2.16 13.734l.043 3.899c-.223 3.611-.917 6.374-2.23 9.726h-2l-.188 2c-3.415 12.612-15.087 20.514-27.242 23.621-3.027.447-5.948.549-9.008.567l-3.308.043c-3.425-.243-6.05-1.025-9.254-2.23l-2.535-.825c-7.876-2.69-17.481-6.192-23.465-12.176a89 89 0 0 0-4-2q2.873-1.224 5.75-2.437l3.234-1.371c2.357-.932 4.546-1.67 7.016-2.192v-2q3.434-1.756 6.875-3.5l1.972-1.012c4.926-2.488 4.926-2.488 7.153-2.488v-2c5.75-3 5.75-3 8-3l1 2c1.298-2.223 1.298-2.223 1-6l2.937-1.562c8.177-4.558 8.177-4.558 14.062-11.438h3l1-3c8.314-6.299 18.696-10.896 29.18-11.141l2.317-.059q2.367-.05 4.734-.055c6.56-.21 11.732-2.133 15.145-8.183a86 86 0 0 0 1.625-8.563l-2.607 1.477c-3.572 1.604-5.802 1.892-9.682 1.894l-3.605.053q-3.696.014-7.391.016c-20.774.324-36.423 12.024-51.215 25.623-14.087 12.807-14.087 12.807-21.5 13.938v2q-3.373 1.474-6.75 2.937l-1.922.842c-9.649 4.171-23.827 5.823-32.828-.967-8.31-9.35-6.465-19.85-2.176-30.785l.799-1.918q.943-2.271 1.852-4.558c7.217-18.033 7.217-18.033 14.63-23.512 3.26-2.776 5.59-6.013 8.082-9.476l1.448-1.995c2.41-3.37 4.54-6.756 6.552-10.38 3.243-5.089 8.406-7.54 13.48-10.527 10.31-6.166 17.075-17.14 16.895-29.41l-.027-2.422-.035-1.829-.688 3.375c-2.1 8.268-5.392 14.592-12.312 19.625l-1 2c-2.144 1.106-2.144 1.106-4.812 2.188l-2.645 1.105c-2.69.749-3.958.653-6.543-.293-1-7.625-1-7.625-1-11-2.549 5.825-4.934 11.63-6.834 17.702-3.465 11.046-8.605 20.315-17.166 28.298h-2v2h-2l1-4c-2.408 2.408-2.261 3.772-2.48 7.052-.677 9.657-3.93 16.702-8.535 25.085-6.715 12.698-8.82 24.005-3.985 37.863h2l-1 2c-5.174-2.248-8.777-4.165-12-9l1 5h-5l-2-32-1 31c-8 1-8 1-11 1l1.5-1.75c1.87-2.354 1.87-2.354 1.5-6.25l-1.25 2.188c-4.861 7.812-4.861 7.812-7.75 7.812 1.166-3.11 2.53-5.97 4.125-8.875 5.753-11.658-1.96-24.362-8.286-34.199-4.196-6.673-5.005-11.5-4.843-19.332.01-7.51-3.343-11.437-7.91-16.96-6.37-8.04-9.296-16.769-11.908-26.553-3.219-11.744-11.123-18.503-20.179-26.08 3.032 3.622 5.998 7.02 9.5 10.187 6.822 6.807 9.61 15.894 12.438 24.875 3.159 9.99 7.87 17.62 14.906 25.367 1.745 2.37 2.016 4.687 2.157 7.57-3.32-1.106-4.059-1.945-6.25-4.562-1.807-2.152-3.592-4.274-5.551-6.289-8.85-9.223-12.21-21.665-16-33.57-.83-3.357-.83-3.357-2.2-4.578l.071 1.863.055 2.45.07 2.425c-.195 2.262-.195 2.262-2.195 5.262-4.948-.46-7.29-1.765-11-5l-2.625-1.5c-2.979-1.881-5.375-3.802-5.375-7.5l-3-1c-2.383-4.267-3.4-9.193-4-14-1.002 15.274 6.893 28.328 20 36 4.746 3.433 7.5 7.004 10.633 11.938 1.55 2.34 3.354 4.112 5.367 6.062a291 291 0 0 1 2.75 3.813c2.173 2.98 4.384 5.249 7.25 7.562 4.62 3.912 7.213 8.3 10 13.625l1.002 1.9a659 659 0 0 1 3.248 6.288l1.035 2.015c3.204 6.422 4.996 12.29 4.902 19.547l-.02 3.36c-.167 2.89-.167 2.89-1.167 5.89h-2l-.625 2.188c-3.048 6.235-8.547 9.39-15.375 9.812-10.548-.35-18.836-2.48-28-8v-2l-2.688-.812c-4.552-1.632-8.04-3.63-11.312-7.188-3.012-3.22-3.012-3.22-7-5l-4-4a254 254 0 0 0-6.293-4.633C410.998 525 410.998 525 409.998 523a149 149 0 0 0-4.847-2.793c-3.189-1.788-6.253-3.774-9.332-5.742-8.855-4.599-17.13-4.935-27.008-5.027q-3.99-.05-7.98-.13c-1.169-.011-2.337-.024-3.54-.037-3.386-.278-6.13-1.065-9.293-2.27 1.169 7.53 4.108 11.553 11 15a67 67 0 0 0 4.113.14c13.537.257 25.2 1.664 35.887 10.859v2h3v2l4 1v2l1.813.375c2.187.625 2.187.625 5.187 2.625v2h3a181 181 0 0 1 4 4l3 1 2.313 2.375c2.746 2.682 5.2 4.084 8.687 5.625v2l2.125.187c3.909 1.105 5.879 3.095 8.875 5.813-5.898 8.536-13.9 12.326-24.316 10.863-7.668-2.467-13.326-8.956-14.684-16.863-.479-5.428.09-10.648 1-16-5.141 7.712-3.13 17.616 1.188 25.312 2.664 3.98 5.517 5.661 9.812 7.687l2 1c10.944 1.33 19.645-1.89 26-11l2.012 1.243 2.676 1.632 2.637 1.618c2.51 1.414 4.978 2.506 7.675 3.507-3.726 9.347-18.798 13.612-28 15-19.186 1.35-36.537-2.534-47.25-20.043-7.384-14.035-5.79-27.223 1.25-40.957-8.192-3.116-16.264-3.382-24.91-3.653-6.508-.22-12.747-.784-19.09-2.347 1.477 6.275 3.707 9.707 8.313 14.312 6.388 6.389 11.178 12.737 15.375 20.75q1.38 2.58 2.762 5.16l1.313 2.466c2.928 5.47 5.634 10.092 10.238 14.312-4.537-1.282-7.664-2.964-11.312-5.938l-2.614-2.09C365 570 365 570 364 567l-2-1c-1.364-2.275-2.56-4.615-3.781-6.97-1.057-2.173-1.057-2.173-3.219-3.03l-1-3a121 121 0 0 0-5.562-4.563c-5.438-4.218-5.438-4.218-5.438-6.437l-2.812-.813c-6.681-2.489-10.06-8.685-11.125-15.562-1.13-18.099 7.245-34.586 15.016-50.317C349.78 463.675 349.78 463.675 351 451c5.027 4.318 4.571 10.605 3.003 16.641a224 224 0 0 1-1.441 4.61c-2.21 6.729-2.21 6.729-2.562 13.75l.562-3.5c1.66-6.594 6.194-11.545 12.188-14.625 7.208-4.159 6.823-11.193 6.668-18.73-.53-7.059-2.96-13.563-5.418-20.145-.36-1.04-.722-2.078-1.094-3.149-7.007-18.67-21.49-34.289-36.945-46.457-4.568-3.626-6.644-7.02-8.96-12.395l-1.876 3.5-1.054 1.969c-2.796 6.612-3.457 12.936-3.446 20.031l-.001 2.63c.12 7.133 1.38 13.474 3.404 20.292 1.059 3.896 1.553 7.568 1.972 11.578h2q1.692 3.342 3.375 6.687l.961 1.897c1.72 3.42 3.31 6.836 4.664 10.416-4.175-3.841-7.077-7.863-9.937-12.75l-1.313-2.243c-13.33-23.55-17.25-53.163-2.41-77.175 1.468-2.036 3.019-3.933 4.66-5.832l2.067-2.43c7.246-8.292 14.776-15.04 24.059-20.944l2.027-1.301c10.34-6.384 10.34-6.384 15.761-4.094l2.711 1.957 2.727 1.918 2.648 1.894 2.836 1.614c2.164 1.386 2.164 1.386 2.164 3.386l1.688.188c3.85 1.353 6.098 4.497 8.812 7.437 1.508 1.494 1.508 1.494 3.688 2.563 5.384 3.47 10.098 7.974 12.812 13.812l1.5 1.5c3.793 3.793 3.7 7.277 3.5 12.5q-2.72-.433-5.438-.875l-3.058-.492c-1.827-.33-3.655-.672-5.452-1.136-6.804-1.74-13.428-1.864-20.427-1.872-1.155-.025-2.31-.05-3.5-.074-12.125-.041-20.855 4.01-31.082 10.059-6.186 2.827-9.886 1.516-15.043-2.61-1.875-2.25-1.875-2.25-3-4l.953 1.461 1.297 1.914 1.265 1.899c4.023 4.679 8.907 4.173 14.484 2.726 3.508-1.343 6.926-2.88 10.327-4.472 10.132-4.729 23.076-5.496 33.673-1.528l2.899 1.07c8.01 3.145 14.09 6.698 20.102 12.93l2 1v2l3 1c.7.97 1.402 1.94 2.125 2.938 3.421 4.326 8.803 5.69 14.152 4.598l1.722-.535c.584-17.031-2.418-31.445-12-46l-2-1-1.347-2.309c-1.752-2.853-3.547-4.597-6.09-6.754a144 144 0 0 1-8.563-7.937 137 137 0 0 0-3.25-2.75L392 325c22.21-19.251 56.892-27.087 84.946-32.227 16.1-3.07 26.185-10.193 30.835-26.515.452-2.077.842-4.167 1.22-6.258z"></path><path fill="#477255" d="M510 561v10l-4.062 1.25c-9.873 3.337-20.485 10.394-23.938 20.75h-2l-.563 1.688c-2.101 3.38-5.144 5.163-8.437 7.312 8.739.832 12.299-4.06 16.574-10.832 1.841-2.8 3.942-4.92 6.425-7.168l1.809-1.82c4.667-4.495 7.657-6.18 14.19-6.18 1.96 1.96 1.048 5.394 1 8l-1.905.445c-10.463 2.742-16.341 8.387-23.094 16.555a773 773 0 0 1-3.813 4.438l-1.707 1.996c-3.263 3.452-7.009 2.596-11.418 2.504-18.019-.125-27.812 5.735-41.059 17.453-4.223 3.668-6.161 4.864-11.69 4.734l-3.012-.054-2.301-.07c7.588 2.89 11.418 2.842 18-2a171 171 0 0 0 5.375-5.438c8.56-8.812 16.202-13.06 28.625-12.562-3 2-3 2-5 2v2l-3.188 1.312c-5.826 2.263-5.826 2.263-9.812 6.688l-2.246 1.312c-3.1 1.9-5.298 4.072-7.817 6.688-2.843 2.944-5.584 5.645-8.937 8 4.302 3.26 6.836 3.549 12 2 3.185-2.129 6.11-4.49 9-7 1.567 3.134.082 5.962-.813 9.187-3.507 13.502-5.352 24.711-.312 38.145 2.016 5.691 2.411 10.928 2.437 16.918l.017 2.33c-.057 4.513-.632 8.173-2.33 12.42 4.825-1.27 4.825-1.27 8-5 1.3-9.51-.976-16.53-5-25-7.713-17.742-3.792-29.294 3-47h1l.044 2.02c.752 14.545 7.449 26.204 20.957 31.98q2.631 1.298 5.25 2.624l2.453 1.227 2.297 1.148 2.078.918c5.976 3.365 9.84 10.165 12.922 16.082-2.092-14.005-10.132-23.175-23-28v-2l-2.625-.562c-8.681-3.698-13.926-14.144-14.578-23.285-.123-8.404.011-16.863 5.203-23.84 3.92-1.715 7.11-1.306 11.332-1.13 4.692-.322 7.567-2.98 9.668-7.183h2l.734-2.68c2.715-7.12 9.392-13.96 16.266-17.32 3.375-.25 3.375-.25 6 0l-1 4h-2l-1 3-2.254 2.211c-3.166 3.216-5.352 6.576-7.683 10.414l-1.317 2.126a177 177 0 0 0-8.394 15.308c-1.635 2.348-2.541 2.694-5.352 2.941l-1.875-.687c-3.652-.538-5.43 1.402-8.125 3.687-3.886 7.266-1.856 14.847 2.625 21.29 2.977 3.703 6.417 5.741 10.562 7.897 9.03 4.921 15.677 11.982 20.812 20.812 1.883-2.824 2.423-4.234 3.07-7.449l.528-2.568.527-2.67.551-2.705q.67-3.302 1.324-6.608c3.326 1.663 3.238 5.41 4 8.813 1.367 6.319 1.367 6.319 4 12.188l1.617-2.16c5.98-7.688 12.04-12.621 20.32-17.61 8.726-5.325 14.872-11.306 13.875-22.354-1.073-5.121-1.836-7.93-6.687-10.25-3.158-.632-5.065-.525-8.125.375l-1 3c-1.302-2.518-2.474-5.062-3.629-7.653-7.056-16.093-7.056-16.093-18.645-28.957-2.727-2.39-2.727-2.39-2.727-6.39 9.423-1.414 15.348 7.142 20.188 14.062 5.251 8.654 5.251 8.654 13.277 13.102l2.473-.54c5.297-.794 8.62-.47 12.312 3.833 6.864 10.939 2.824 26.635-2.797 37.23-3.41 5.427-7.976 8.095-13.538 11.117-11.893 6.473-18.317 13.622-20.915 27.196l1.18-2.16c5.707-9.77 12.392-14.137 22.287-19.12 10.009-4.932 10.009-4.932 16.533-13.72l1.152-2.406c2.344-5.405 3.73-10.82 4.848-16.594 2.154 3.232 3.267 6.218 4.562 9.875l1.317 3.68c3.32 10.205 3.24 18.965-1.88 28.445-7.651 14.582-7.651 14.582-4.25 29.938 2.346 2.15 4.226 3.138 7.25 4.063l-1.437-2.688c-5.084-10.778-2.341-22.548 2.012-33.164 1.596-4.207 1.963-7.985 1.926-12.46l-.004-2.314c-.22-8.48-2.431-16.4-4.924-24.462-.586-1.958-1.09-3.926-1.572-5.912 4 2 4 2 4 4l1.625.75c2.375 1.25 2.375 1.25 5.312 3.375 3.142 1.923 4.488 2.744 8.063 1.875 2.927-3.606 2.927-3.606 2-8a161 161 0 0 0-4.277-2.778c-1.895-1.344-3.331-2.834-4.91-4.535-6.388-6.557-14.202-10.843-22.817-13.766-1.996-.922-1.996-.922-3.996-3.922 14.331-.94 23.994 5.386 32.812 16.375 4.486 5.383 10.417 7.654 17.434 6.14l1.754-.515-2.273-.34c-8.918-1.718-13.402-5.377-19.727-11.66-10.291-9.086-18.864-11.472-32.425-11.585-7.333-.12-13.24-1.02-18.075-7.102l-1.75-2.12-1.75-2.192c-6.139-7.578-11.4-11.65-21-14v-8c12.164-1.242 16.862 8.556 22.633 17.543l1.555 2.394 1.355 2.152c2.826 3.706 4.998 5.461 9.707 4.598l3.75-.687c-1.196-.475-2.392-.95-3.625-1.438-4.466-2.22-6.337-5.01-8.89-9.191-6.692-10.69-15.409-16.31-27.485-19.371v-11c9.743 1.515 13.267 5.899 17.875 14.5 5.44 9.99 13.652 14.934 24.625 16.438 8.266 1.163 14.915 4.696 20.5 11.062v3h3v2l2.188.687c3.371 1.573 5.222 3.66 7.812 6.313a375 375 0 0 0 6 4c3 2.6 3 2.6 3 5l2.313.437c2.687.563 2.687.563 5.687 1.563 10.393.794 18.538-2.006 28-6l-2-1c1.39-3.356 2.917-5.073 6-7h2l1-3c5.466-5 5.466-5 8-5l.813-2.188c1.178-2.79 2.606-5.235 4.187-7.812l-1.94.626q-4.372 1.41-8.747 2.811l-3.053.987-2.959.947-2.713.873c-4.848 1.416-9.222 1.892-14.275 1.88l-3.45.009c-2.863-.133-2.863-.133-4.863-1.133v-2l2.613-1.031q6.202-2.465 12.387-4.97l2.334-.94c18.457-7.04 18.457-7.04 34.834-17.73 3.603-2.962 6.217-3.826 10.832-3.329 3.312 1.813 3.312 1.813 6 4l3 2 1 3a90 90 0 0 0 3 3c10.688 13.378 14.07 34.664 8 50.688-6.885 13.594-18.581 25.137-34.546 25.363q-2.033-.04-4.064-.093l-4.476-.064a720 720 0 0 1-6.984-.14c-12.487-.35-12.487-.35-23.93 4.247l-3.126 1.75c-15.57 12.186-17.027 27.842-14.875 46.25-8.922-11.628-13.464-26.017-7.437-40.25 1.437-2.75 1.437-2.75 3.437-2.75l.75-2.75c2.315-6.017 6.736-8.365 12.25-11.25l2.09-1.105c4.676-2.412 8.583-4.002 13.91-4.053l2.347-.03 2.513-.023q2.66-.042 5.32-.086c2.782-.04 5.564-.078 8.347-.104 2.694-.028 5.388-.074 8.083-.122l2.488-.01c13.797-.29 23.962-7.178 29.902-19.467l1.137-2.277c1.183-3.732 1.246-7.346 1.238-11.223l-.003-2.408c-.142-7.174-1.707-13.426-4.372-20.093l-.934-2.351a125 125 0 0 0-2.066-4.649l.48 2.453c2.453 16.743-.026 29.587-11.48 42.547l-3 1-1.826 1.9c-8.545 8.255-23.414 8.606-34.559 9.952-18.477 2.575-33.745 11.099-40.615 29.148-4.177 14.189-.982 26.337 6.22 38.836 1.934 3.382 3.294 6.279 3.78 10.164h2c2.742 8.225 2.917 14.167-1 22-2.951-2.755-5.011-5.431-7-8.938-10.176-17.264-24.303-18.309-43-17.062-12.05 1.354-27.572 5.852-36 15-6.043 2.89-8.144 1.037-13.262-2.613-11.304-7.918-25.253-12.226-39.012-12.703l-3.496-.127-3.605-.12-3.676-.13a3900 3900 0 0 0-8.95-.307v2c-1.299.62-1.299.62-2.624 1.25-5.555 2.88-9.31 4.964-12.23 10.668-2.34 4.258-5.318 8.137-8.145 12.082-3.485-1.742-3.181-4.976-3.25-8.5.135-8.424 2.293-15.207 6.688-22.375 8.631-14.209 11.45-31.988 2.969-46.934-10.014-15.124-26.08-19.857-43.27-21.578-15.624-1.589-28.216-5.675-37.656-18.723-1.353-2.005-1.353-2.005-3.48-2.89a109 109 0 0 1-1-7h-2c-2.541-9.685-2.91-18.366 0-28-8.316 13.518-11.905 29.984-3.571 44.488a133 133 0 0 0 4.57 6.512l1.344 2.09c2.12 2.445 4.19 3.333 7.156 4.597l2.906 1.262c4.19 1.697 7.197 2.151 11.703 2.078l3.706-.042 3.935-.048c21.274-.098 42.47.175 54.25 20.812 6.598 14.875 1.71 29.166-8 41.25-1.375-2.75-.34-4.211.512-7.02 2.358-9.566-.76-19.709-5.512-27.98l-1.02-2.062c-5.986-11.17-19.708-15.538-31.809-15.109-2.19.173-4.364.409-6.546.672-19.471 2.302-31.597-3.14-42.875-18.875-11.342-17.755-6.918-38.531 3.25-55.625 8.905-12.697 8.905-12.697 18-13 2.607 1.078 4.638 2.41 7 4v2l1.875.437c2.125.563 2.125.563 4.125 1.563v2l1.918.277c4.307 1.01 8.295 2.636 12.395 4.285l2.664 1.065a204 204 0 0 1 18.909 8.846c3.36 1.765 6.339 3.018 10.114 3.527v1l-8 2c11.712 2.928 27.384.964 38.215-4.293 1.785-.707 1.785-.707 3.785.293q-3.432 2.257-6.875 4.5c-.65.43-1.302.858-1.973 1.3-4.925 3.2-4.925 3.2-7.152 3.2v2l-1.574.77-2.113 1.042-2.243 1.102c-2.178 1.078-2.178 1.078-4.382 2.773-6.075 2.967-12.59 3.066-18.688.313a366 366 0 0 0-4.125-1.25c-5.677-1.86-10.728-4.756-15.875-7.75-.917-.512-1.833-1.024-2.778-1.55-2.557-1.668-2.915-2.478-3.222-5.45 6.73.776 13.293 1.882 20 3l-27-8c6.808 8.706 6.808 8.706 14.688 15.312 4.122 2.966 7.808 6.014 11.312 9.687l-3 2c9.294 5.348 23.859 7.502 33.25 1.688 6.56-4.824 12.637-10.317 18.75-15.688l2.394-2.086a612 612 0 0 0 7.758-6.856l2.16-1.933 1.926-1.742c3.783-2.97 7.89-2.501 12.449-2.446l2.127.014q2.592.02 5.185.049v-2l2.438-1.938c5.746-4.594 10.108-10.775 14.484-16.637C501.706 561 501.706 561 509.995 561zM847 257c9.14 3.281 9.14 3.281 11 7l2.25 1.25c2.75 1.75 4.381 3.609 6.371 6.16 1.474 1.7 3.041 2.963 4.816 4.34 6.143 5.159 10.655 12.038 10.102 20.27-.893 3.281-2.93 4.944-5.539 6.98l-1 1c-7.76-.31-12.255-3.678-16.938-9.562-3.137-3.894-6.504-5.473-11.062-7.437l1.645 1.976c3.703 4.524 6.886 8.694 9.355 14.023l1.41 1.266c2.22 2.422 3.063 4.981 4.215 8.047l1.29 3.363c1.02 3.121 1.643 6.076 2.085 9.324-3.036-2.599-4.461-5.62-6.187-9.187l-1.606-3.293L858 310h-3c-5.761-3.043-10.15-6.784-14-12 1.277 2.67 2.699 5.066 4.375 7.5 4.027 6.368 7 13.895 6.625 21.5-2.888-1.444-2.933-3.232-3.937-6.25-2.229-6.678-5.035-10.83-10.062-15.75a318 318 0 0 1-4.125-5.25C829.184 293.92 823.96 289.511 818 285l2.262 2.254c12.72 12.756 23.7 29.4 25.738 47.746-3.628-1.21-3.648-1.755-5.121-5.113l-1.147-2.533-1.17-2.666c-3.242-7.539-3.242-7.539-8.562-13.688v-2l-1.688-.813c-2.51-1.289-4.9-2.727-7.312-4.187l1.25 1.59c4.112 5.516 7.278 11.2 10.188 17.41l1.072 2.284C836 330.72 836 330.72 836 333c-4.054-1.351-4.365-3.185-6-7v-2c-2.842-1.572-2.842-1.572-6-2l.875 3.114c2.195 8.09 3.77 15.426 3.125 23.887-2.74-1.37-2.886-2.764-3.988-5.594l-1.143-2.875-1.181-3.031c-2.792-7.153-5.823-13.864-9.688-20.5l-1.02-1.923c-2.178-4.062-4.617-6.95-7.98-10.077-.514-.546-1.029-1.09-1.558-1.653-4.946-5.219-10.535-10.046-17.441-12.348l1.609 1.32c4.267 3.598 7.395 6.928 10.39 11.68l2.376 2.126c4.052 4.437 9.65 11.8 7.625 17.875a91 91 0 0 0 1 4c1.395 7.408 1.395 7.408-1 11-2.625.187-2.625.187-5 0v-3h-2l-1.813-2.75c-2.905-4.317-5.882-7.464-11.188-8.25l2 1v2h2c4 6.5 4 6.5 4 11-9.113-1.45-15.446-15.053-20.062-22.188-5.596-8.125-12.337-14.612-21.938-17.812l1.872 1.214c13.869 9.31 21.95 20.884 29.129 35.723l.918 1.862c1.806 3.889 2.394 6.93 2.081 11.201-2.956 1.479-5.742 1.06-9 1l-.812-3.125c-2.18-7.507-5.626-12.5-12.188-16.875l1.242 2.047 1.633 2.703 1.617 2.672c3.508 5.998 3.508 5.998 3.508 10.578-3.343-.382-4.897-.917-7.563-3.062-2.44-2.353-2.44-2.353-6.437-1.938-1.57-1.293-1.57-1.293-3.125-3.187l-1.832-2.203a388 388 0 0 1-5.595-7.366c-9.664-12.885-21.838-23.346-37.448-28.244v-2c15.727-5.351 31.85-7.585 48.228-10.052 13.636-2.07 26.796-4.158 39.772-8.948l1.938-.707c10.201-3.735 39.432-25.624 47.062-23.293z"></path><path fill="#477356" d="m186 260 1 2a157 157 0 0 0 5 3l2.813 2c3.007 1.887 5.698 3.028 9.021 4.178 2.042.775 3.892 1.677 5.818 2.7 20.823 10.538 44.98 14.042 67.787 17.502 13.007 1.974 25.801 4.38 38.561 7.62-2.556 2.696-4.844 3.974-8.25 5.5-14.518 7.137-30.836 19.085-38.75 33.5-4.27 6.518-8.556 8.26-16 10l-2 1c.537-4.588 1.755-7.824 4.063-11.812 1.976-2.914 1.976-2.914 2.937-6.187-6.615 5.073-11.878 9.997-11 19-6.875.125-6.875.125-8-1 .839-15.374 11.575-31.072 22-42h2l1-3 1-1c-11.099 8.316-19.52 20.527-27.316 31.863-1.705 2.164-3.41 3.6-5.683 5.137 1.161-6.62 3.278-10.25 8-15-5.284 2.093-8.486 3.433-11.438 8.437-4.045 6.633-4.045 6.633-8.25 6.438C218 339 218 339 217 337c-.07-2.208-.084-4.417-.062-6.625l.027-3.602c.035-2.773.035-2.773 2.035-3.773v3l2-4h-2c1.288-6.727 4.676-10.81 9-16l1.875-2.625c3.273-3.658 7.193-6.46 11.125-9.375h-2l-1-2c-6.742 3.064-11.09 7.578-16 13l-1.365 1.496C209.9 318.503 203.442 332.967 198 348h-1c-.323-6.03.317-11.533 1.437-17.438l.408-2.153c1.011-5.123 1.011-5.123 2.155-7.41-5.654 3.619-9.243 7.454-13 13-1.84-3.678 1.154-7.739 2.687-11.312l1.069-2.592c1.935-4.568 3.856-8.386 7.244-12.096-10.722 4.057-14.534 14.601-18 25h-2c1.98-21.33 13.45-35.369 29-49-11.521 6.53-20.304 14.552-27 26h-2c-1.749 4.304-3.377 8.648-5 13h-1c-.403-6.173 1.034-11.174 3-17l1-3c-6.252 3.275-8.638 7.961-12 14a395 395 0 0 1-2.875 4.625L160 325c-3.519-7.037 10.726-24.874 15-31a258 258 0 0 1 4-5l-8 2v2a111 111 0 0 1-5.375 4.563l-3.024 2.441c-4.077 3.128-6.425 3.514-11.602 2.996-5.265-3.218-7.307-5.758-7-12 4.573-14.074 26.71-41.33 42-31z"></path><path fill="#120f0f" d="M513 297c3.469 1.734 2.832 5.365 3.102 8.953-.163 4.886-2.018 8.697-4.102 13.047-4.675 10.927-2.857 15.961 4.312 24.875C518 346 518 346 518 348l3 1c1.688 3.563 1.688 3.563 3 7l.594-3.594c1.539-8.581 3.421-16.514 7.344-24.344l.98-1.984c2.125-4.006 4.417-6.456 8.082-9.078l2.5-2.563c2.391-2.331 4.502-3.979 7.5-5.437l2 1-2.312 2.625c-7.463 9.018-10.634 21.26-9.25 32.812 1.382 11.69 1.254 23.06-1.75 34.457-2.183 9.86-.845 17.85 3.058 27.012 3.394 8.373 3.695 15.439 1.254 24.094h-2l-.875 1.875C539.399 436.136 538.793 437 535 437v2l-4-1 2-3.125c4.389-8.872 2.992-18.346-1.754-26.668-6.79-12.026-3.636-26.402 1.754-38.207l1-3h2q-.174-3.345-.375-6.688c-.07-1.241-.14-2.482-.21-3.761-.38-3.244-1.035-5.617-2.415-8.551l-.48 3.508q-.352 2.308-.708 4.617l-.306 2.305c-.888 5.566-2.39 8.66-6.506 12.57h-3l-3.691-8.584a372 372 0 0 1-4.31-10.416h-2a394 394 0 0 1-3-5l-2.062-1.813c-4.185-4.726-5.174-13.064-3.937-19.188 1.7-3.252 3.72-6.13 6-9-8.549 7.328-10.521 18.183-7.805 28.789.875 2.404 2 4.449 3.305 6.648 9.312 15.897 2.605 33.324-6.5 47.562q-1.588 2.254-3.188 4.5c-5.255 7.813-8.636 17.166-5.812 26.5.976 1.351 1.973 2.687 3 4v2h2l-.176-3.656c-.648-19.16-.648-19.16 7.348-23.53l1.828-.813c-.877 6.512-.877 6.512-1.5 8.976-2.234 9.043.757 15.222 4.64 23.26 2.627 5.647 3.515 10.042 3.008 16.326-.191 3.144.582 5.58 1.852 8.438l6 1c.223-1.581.428-3.165.625-4.75l.352-2.672c.04-4.495-1.933-6.55-4.977-9.578-4.299-7.03-6.332-15.293-2.25-22.875 5.13-7.125 5.13-7.125 8.25-7.125l-.5 2.937c-1.067 7.887-1.34 13.424 3.5 20.062l3 1v2c8.816-.705 16.228-5.429 19.75-13.75l1.25-3.25 1-1c1.263-6.745 1.683-11.869-1.871-17.812-7.63-14.784-2.582-26.457 3.871-40.188 2.415 3.03 3.463 5.133 4 9 6.079-1.39 9.092-6.623 10.637-12.367.416-3.013.46-5.904.426-8.945l-.028-3.238-.035-2.45c9.364 8.323 12.345 20.195 9.422 32.419-2.23 5.078-6.075 8.18-10.398 11.527-4.72 4.792-4.275 10.94-4.398 17.242-.62 15.986-7.087 29.557-20.625 38.812q-3.385 1.43-6.813 2.75c-6.556 2.752-7.996 5.714-9.379 12.543-.969 3.244-1.863 4.111-4.808 5.707-6.272.796-9.18.457-13-5a75 75 0 0 1-2.227-7.793c-.648-2.558-.648-2.558-3.773-4.207v-2l-4-1v-2l-1.723-.192c-9.592-3.406-15.599-18.702-18.277-27.809-.192-2.906-.192-2.906-.133-5.93.048-17.766-.955-34.599-18.242-43.883l-2.625-1.187c7.565-2.637 15.07 3.291 20.316 8.285 6.504 6.624 8.715 13.611 9.684 22.715l1.187-2.687c1.91-3.491 4.01-5.51 6.813-8.313 2.166-2.903 4.095-5.921 6-9l1.27-1.867c6.36-10.474 2.64-21.384-1.687-31.722-5.25-12.592-4.4-22.605 4.507-33.31a123 123 0 0 1 7.43-7.495c3.192-3.462 3.855-7.022 4.48-11.605z"></path><path fill="#477355" d="m194 81-2.266 1.758C186.57 86.855 182.386 90.356 179 96l-3 1c-1.084 1.749-1.084 1.749-2 4-3 6-3 6-5 6l-.261 1.555c-1.04 3.443-2.813 6.442-4.551 9.57-3.169 5.83-5.968 11.609-8.188 17.875l-1.02 2.75c-1.086 3.061-2.057 6.135-2.98 9.25l-.918 3.078c-4.313 17.414-4.297 38.718.918 55.922l1.032 3.508c2.893 8.895 7.152 16.548 11.969 24.492l1.671 2.96c2.646 4.651 4.881 7.9 9.329 11.04v2a407 407 0 0 1-4.25 2c-.79.37-1.578.742-2.391 1.125C167 255 167 255 163 255v2h-4v2c-1.94 1.367-1.94 1.367-4.562 2.875l-2.766 1.613a274 274 0 0 1-4.718 2.617c-4.033 2.186-6.865 4.512-9.953 7.895l-2.204 2.367c-3.719 4.043-7.098 7.82-9.796 12.633-2.193-4.386 3.313-10.37 6-14 10.027-11.757 21.168-19.434 35-26-9.981 1.74-18.121 5.199-27 10a565 565 0 0 1-5.625 3l-2.29 1.25c-2.482.892-3.652.685-6.085-.25-1.698-1.697-1.757-3.669-1.72-5.965 2.928-8.288 16.21-12.31 23.72-15.035-13.086-4.027-22.953-.064-33 8 5.88-12.5 23.106-20.647 36.5-21.125l2.5.125c-5.491-6.923-13.4-7.28-21.625-7.375l-2.17-.042c-5.123.045-8.58 1.254-13.205 3.417-4.222-.096-6.068-1.238-8-5-1.192-6.555 2.225-11.722 7.16-15.773 5.279-3.613 10.201-6.274 16.652-6.852l2.395-.226L136 197c-7.701-3.771-17.772-4.742-26-2 .173-4.848 4.097-6.171 8-8l2.308-1.109c3.29-1.089 6.046-1.085 9.504-1.016l3.52.055L136 185l-1.513-.762c-2.272-1.153-4.536-2.32-6.8-3.488l-2.38-1.199c-9.001-4.672-9.001-4.672-9.706-11.297.19-4.618 1.727-8.226 3.774-12.316l1.08-2.217c8.025-16.01 19.392-29.676 31.545-42.72l2.11-2.273C159.475 103.147 186.544 77.274 194 81z"></path><path fill="#0c0c0f" d="M511 590c15.303 6.012 22.783 24.353 28 39l1.352-1.445c2.21-2.085 3.625-2.411 6.648-2.555 6.088 2.609 8.54 7.165 9.121 13.688-.731 13.967-10.38 18.954-21.098 25.441-5.797 3.588-9.773 7.543-13.727 13.102-1.297 1.77-1.297 1.77-3.297 3.77q-1.225-3.81-2.437-7.625l-.698-2.16-.673-2.13-.62-1.936c-.711-2.673-1.117-5.42-1.572-8.15l-5 21c-3.916 0-3.705-.694-5.562-3.937-5.563-8.714-12.883-13.955-21.953-18.605-7.41-4.345-11.933-11.953-11.422-20.582.728-5.212 2.547-7.997 6.687-11.25 3.555-.987 6.63-.228 10.25.375l.707-1.953C490.337 613.135 496.94 598.707 507 592h4z"></path><path fill="#477355" d="M835 83a45.4 45.4 0 0 1 13 7v2l2.188.75c3.952 1.757 6.815 4.222 9.812 7.313 1.939 2.03 1.939 2.03 4.438 3.374 6.077 3.706 10.564 9.866 15.258 15.138 2.254 2.552 2.254 2.552 5.304 4.425l2 4 3 2 1 3 1.875 1.813c2.473 2.545 3.561 5 5.125 8.187a265 265 0 0 0 2.875 4.188c4.924 7.318 10.521 16.62 9.125 25.812-2.822 4.666-6.012 6.217-11 8.187-5.586 2.217-5.586 2.217-11 4.813l2.93-.176c10.307-.357 16.402 1.397 25.07 7.176l-1 3-1-1c-8.99-1.642-19.408-1.76-27 4l1.723-.07c10.105-.237 16.407 2.892 24.277 9.07l1.77 1.383c2.656 3.491 1.78 8.476 1.23 12.617-1.96 3.317-2.773 4.029-6.625 3.937-1.91-.53-3.816-1.08-5.703-1.687-11.857-3.783-20.4-2.373-30.672 4.75l3.437.734c13.69 3.007 26.147 7.064 34.562 19.266l-1 2-2-2.25c-6.133-6.042-12.49-7.356-20.875-7.063l-2.586.03c-4.42-.038-4.42-.038-8.539 1.283l9 3v2l2.188.375c2.77.615 5.209 1.51 7.812 2.625v2l2.375.812c3.493 1.58 4.57 3.025 4.75 6.875-.125 2.313-.125 2.313-2.29 3.434-3.607 1.118-4.818.504-8.21-1.059l-3.172-1.425a4406 4406 0 0 1-7.219-3.43l-3.86-1.832-1.928-.917c-5.048-2.36-10.061-4.078-15.446-5.458a824 824 0 0 1-4.125-1.188l-2.875-.812c1.29-3.575 2.824-6.3 5.125-9.313 25.896-36.47 21.074-80.683 3.875-119.69-1.233-2.108-2.566-4.02-4-6v-2h-2l-.875-2.437c-.858-2.695-.858-2.695-3.125-3.563l-1.563-2.937c-3.8-6.942-9.851-12.54-15.438-18.062zM419 785c3.008 1.504 3.1 3.682 4.188 6.813 2.204 5.955 4.951 11.22 8.261 16.629C433 811 433 811 433.965 813.122c1.292 2.345 2.854 3.672 4.91 5.378 2.24 1.874 4.21 3.6 6.125 5.813 10.499 8.858 27.188 2.188 38.184-1.844 22.775-8.317 40.042-6.713 62.608 1.75 13.643 5.016 26.33 5.215 38.209-4.219 9.385-9.233 14.348-22.615 18-35h2c5.036 17.969-5.23 40.551-18 53-4.219 3-4.219 3-7 3v2c-15.979 6.628-30.63.587-46.171-4.574-15.301-5.011-28.682-3.868-43.829.574l-3.73 1.086c-5.926 1.733-5.926 1.733-11.649 4.015-3.464 1.188-6.753 1.198-10.37 1.149l-2.152-.018c-8.754-.165-17.98-1.279-24.098-8.232l-1.938-1.875c-3.07-3.163-5.657-5.909-7.062-10.125l-1.399-1.25c-2.33-2.546-3.185-5.525-4.226-8.75-.22-.67-.438-1.341-.663-2.032-2.877-9.227-2.88-18.371-2.712-27.968z"></path><path fill="#487355" d="m678.56 323.88 1.829 1.203c27.246 18.338 43.38 43.257 39.113 76.824-2.246 11.28-9.208 37.45-20.504 43.098 1.301-4.157 2.89-7.969 4.812-11.875 10.651-23.02 13.66-46.424 3.188-70.125l-1 5h-2l-.563 1.813c-2.405 3.66-6.354 5.383-10.727 4.973-3.46-1.003-6.564-2.557-9.773-4.16-13.357-6.417-27.525-9.096-42.188-6.313l-2.143.401c-6.035 1.144-12.023 2.456-18.01 3.833-2.598.453-2.598.453-3.598-.547.353-20.119 30.864-38.532 46.25-48 5.866-2.133 10.447.627 15.312 3.875z"></path><path fill="#dd620a" d="M510 314c0 3.622-.832 4.324-3 7.125-5.57 8.106-2.926 16.098 0 24.875l3 1c1.188 2.563 1.188 2.563 2 5h2q2.01 3.9 4 7.813l1.156 2.236 1.094 2.158 1.016 1.984C522 368 522 368 522 371c4.619-2.553 6.983-4.616 7.781-9.941l.363-2.268.711-4.719c.942-5.87.942-5.87 3.145-8.072 2.62 6.88 2.182 13.722 2 21h-2l-.332 1.723c-.778 3.787-1.496 6.946-3.293 10.402-4.58 10.023-1.577 23.514 3.812 32.625 4.425 8.404 2.733 18.562-2.187 26.25l3 1v-2a790 790 0 0 1 5-3l2-3h2q.29-3.156.562-6.313l.317-3.55c.307-3.168.307-3.168-.88-6.137-.039-2.333-.043-4.668 0-7 4.586 3.959 5.325 8.196 4.813 14.062l-.23 3.097c-.633 3.09-1.596 4.45-3.582 6.84l-1.313 3.438c-3.026 6.388-8.287 10.449-15.438 10.688L525 446v-2l-1.75-.063c-4.22-1.759-5.947-5.84-6.57-10.156-.118-4.927.738-9.133 2.32-13.781-7.583 5.73-10.367 11.404-9 21 .882 2.514 1.908 4.82 3.125 7.188C514 450 514 450 514 452l1.938.563c3.26 2.272 2.935 4.611 3.062 8.437-.937 3.438-.937 3.438-2 6-6 0-6 0-7.5-2.75-1.533-3.488-1.562-6.216-1.375-10 .195-6.75-1.99-11.39-5.125-17.25-4.633-9.107-3.297-17.357-1-27-4.542 4.303-7.281 7.161-7.195 13.547l.02 2.559.05 2.644.028 2.692q.035 3.279.097 6.558c-5.389-1.796-7.146-6.205-8.062-11.5-.634-11.156 5.349-20.405 11.46-29.164 9.416-13.565 12.27-28.903 5.602-44.336l-2.125-3.312c-5.174-8.61-3.248-18.981 1.594-27.172 2-3.079 3.932-5.917 6.531-8.516z"></path><path fill="#487456" d="m539 865 3.281 1.332c6.585 2.788 11.897 5.753 14.72 12.668.365 9.747-4.347 15.517-12 21-4.417 1.796-7.413 2.39-12 1-.227-5.419.533-9.775 2-15l-1.216 1.793c-6.021 8.37-13.909 14.586-24.785 13.207-4.529-1.657-8.76-3.707-13-6v-3l-1.875-.812C492 890 492 890 490 887l1 15c-10.52-.501-17.555-3.811-23-13-2.149-6.448-1.471-10.874 3-16 20.895-16.256 44.284-18.131 68-8z"></path><path fill="#a93515" d="m654.31 522.94 3.8.027 2.887.036v2l-3.472.332-4.59.48-2.28.213c-5.081.55-9.054 1.743-13.657 3.974l1.093 2.536c4.308 10.804 6.193 21.173 1.907 32.465h-2l-.188 2c-3.416 12.612-15.087 20.514-27.242 23.62-3.027.447-5.948.55-9.008.567l-3.308.043c-3.425-.243-6.05-1.025-9.254-2.23l-2.535-.825c-7.876-2.69-17.481-6.192-23.465-12.176a89 89 0 0 0-4-2q2.873-1.223 5.75-2.437l3.234-1.371c2.357-.931 4.546-1.67 7.016-2.192v-2q3.433-1.756 6.875-3.5l1.972-1.011c4.926-2.489 4.926-2.489 7.153-2.489v-2c5.75-3 5.75-3 8-3l1 2c1.298-2.223 1.298-2.223 1-6l2.937-1.562c8.177-4.558 8.177-4.558 14.062-11.438h3l1-3c9.539-7.226 20.423-11.174 32.312-11.062z"></path><path fill="#477356" d="m321 302 3.547.91c10.54 2.843 19.867 6.89 29.453 12.09-2.22 3.33-2.714 3.46-6.313 4.625C328.471 327.014 313.594 344.347 304 362h-2l-.875 1.813C298.456 369 298.456 369 296 369q.464-2.688.938-5.375l.527-3.023C298 358 298 358 299 356l-2.09 1.13c-6.05 3.045-11.24 5.316-17.91 2.87-4.32-3.68-4.556-7.531-4-13a136 136 0 0 1 2-6c-8.005 13.622-13.533 27.251-14.655 43.152C262 386 262 386 260 388c.518-21.186 5.842-42.457 20-59h2l.754-1.735C288 317.725 309.424 298.515 321 302z"></path><path fill="#a33415" d="M371.66 522.66c10.338.116 19.477 3.577 27.337 10.341v2h3v2l4 1v2l1.813.375c2.187.625 2.187.625 5.187 2.625v2h3a181 181 0 0 1 4 4l3 1 2.313 2.375c2.745 2.682 5.2 4.084 8.687 5.625v2l2.125.188c3.908 1.104 5.879 3.094 8.875 5.812-5.898 8.536-13.9 12.326-24.316 10.863-7.669-2.467-13.326-8.956-14.684-16.863-.479-5.428.089-10.648 1-16-5.142 7.713-3.131 17.616 1.188 25.312 2.664 3.98 5.516 5.661 9.812 7.688l2 1c10.944 1.33 19.645-1.891 26-11l2.012 1.242 2.676 1.632 2.636 1.618c2.51 1.414 4.979 2.506 7.676 3.507-3.727 9.347-18.798 13.612-28 15-19.186 1.35-36.537-2.534-47.25-20.043-7.384-14.035-5.791-27.223 1.25-40.957-8.975-3.023-17.622-3.658-27-4 1.769-3.537 7.917-2.298 11.663-2.34"></path><path fill="#487356" d="m716.75 307 2.135 1.215c6.088 3.572 11.129 7.79 16.115 12.785l2.031 1.816C755.378 339.67 764.076 363.57 763 388h-1l-.227-2.43c-1.91-16.515-7.963-31.02-15.773-45.57l.973 3.739c2.543 10.227 2.543 10.227-1.16 15.199-4.662 3.419-7.75 3.497-13 1.25l-2.606-1.082C728 358 728 358 726 356q.214 2.407.438 4.813l.246 2.707c.251 2.607.251 2.607 1.316 5.48-3.94-.513-5.06-1.993-7.187-5.25L719 361.035 717 358c-1.55-2.279-3.119-4.546-4.687-6.812l-2.2-3.207c-4.173-5.887-8.613-10.37-14.112-14.98l-2.25-1.98c-6.683-5.684-13.842-9.374-21.75-13.02 0-4.99 5.603-5.988 9.777-8.04 4.323-2.058 8.726-3.82 13.223-5.46l2.136-.81c7.892-2.779 12.768-.614 19.614 3.31z"></path><path fill="#477255" d="M237 478c1.989 2.387 3.288 4.61 4.625 7.438 5.612 11.503 14.023 22.334 23.992 30.336C267 517 267 517 268 519c3.554 2.2 7.296 4.067 11 6l2.39 1.293c3.726 1.958 7.423 3.678 11.406 5.035 16.948 5.773 29.094 15.876 31.61 34.715.256 8.603-1.797 13.803-6.407 20.957a133 133 0 0 0-2 4l-4.492-11.23-.794-1.968a157 157 0 0 1-1.69-4.504c-4.511-10.124-14.868-15.858-23.816-21.535-2.684-1.71-5.159-3.48-7.57-5.555-2.498-2.364-2.498-2.364-5.637-3.207l-1-2-2.25-1.25c-3.34-2.125-5.294-4.664-7.75-7.75l-1.907-1.809c-2.461-2.576-4.179-5.272-6.03-8.316l-1.966-3.195c-4.781-8.233-8.229-16.417-10.91-25.555-.31-1.019-.622-2.037-.943-3.086C237.978 485.81 237 482.45 237 478z"></path><path fill="#477355" d="M788 477c1.685 4.076.196 7.538-1.125 11.5l-.702 2.155C781.02 506.206 774.016 521.542 762 533l-1.882 2.016c-3.883 4.104-6.543 6.489-12.117 7.984l-1 3a137 137 0 0 1-7.375 4.625C725 559.521 708.472 572.367 707 591c-5.62-2.81-7.374-15.42-7.563-21.125.691-14.03 8.047-28.638 21.001-35.09 2.603-1.029 5.22-1.955 7.874-2.848q2.81-1.013 5.613-2.043l2.678-.982C760.161 519.94 777.838 499.443 788 477z"></path><path fill="#c1a364" d="M488 733q2.85 1.111 5.688 2.25l3.199 1.266C510.737 743.12 511.602 759.299 513 773l-3 1 3 1 .06-1.877c.096-2.854.205-5.707.315-8.56l.093-2.952c.501-12.474 1.821-20.698 13.832-26.775 2.564-1.003 4.925-1.836 7.7-1.836l.183 2.125.254 2.875.246 2.813c.235 2.366.567 4.723.95 7.07.527 4.197-.108 7.932-1.196 11.992l-.545 2.1c-1.668 5.997-4.245 10.973-7.892 16.025-.62.948-1.238 1.897-1.875 2.875-4.286 4.286-10.004 7.374-16.125 6.125-14.185-6.676-22.89-24.203-23.25-39.438.085-5.092.96-9.646 2.25-14.562z"></path><path fill="#0c0e0f" d="M514 584c10.507 1.775 16.564 6.539 23 15v2l3 1 2.438 2.5c3.575 3.489 6.34 3.607 11.195 3.676 17.762.417 28.353 3.94 40.664 17.246 4.154 3.849 7.953 5.035 13.516 5.765l3.519.48L614 632c-6.223 4.149-11.675 3.58-18 0-2.502-2.239-4.698-4.669-6.957-7.149-6.925-7.3-14.856-13.088-25.293-12.914L560 612l3.375 1.687 2.227 1.133a94 94 0 0 0 4.734 2.172c6.817 3.023 11.564 7.316 16.879 12.402 3.099 2.9 6.25 5.276 9.785 7.606-1.75 5.75-1.75 5.75-4 8-6.301 0-10.53-2.623-15-7v-2h-3l1.059 3.324 1.379 4.363.697 2.186c4.283 13.593 4.656 26.902-.943 40.11-3.914 9.907-2.287 19.16.808 29.017-5.517-1.38-8.92-3.255-10.57-8.977-1.862-11.213 4.344-20.904 9.383-30.46 3.778-11.335-.403-22.956-4.812-33.563l-1.125 3.75c-1.327 3.924-2.873 7.684-4.625 11.438-.45.963-.898 1.926-1.36 2.918-4.561 6.983-11.332 10.461-18.64 14.082q-2.529 1.264-5.048 2.543l-2.23 1.106c-2.036 1.09-2.036 1.09-3.61 2.805-1.363 1.359-1.363 1.359-3.363 1.359l-.836 1.703c-1.208 2.383-2.486 4.715-3.789 7.047l-1.352 2.422L525 695c-2.811-8.434 3.996-16.845 9.559-22.617 3.37-3.12 6.955-5.29 11.004-7.446 15.384-8.217 18.85-20.612 18.719-37.285-.432-5.604-1.688-9.745-6.407-13.215-3.63-.552-6.781-.02-10.375.664-7.242-.294-11.246-9.298-14.775-14.727-4.757-7.04-10.289-12.266-18.725-14.375z"></path><path fill="#c1a364" d="M463 728c5.649-.308 13.673-.327 18 4 .782 7.14-.51 11.906-5.062 17.562-3.433 4.318-4.204 8.313-4.563 13.75l-.227 3.238L471 769c-3.322-2.946-4.827-5.435-6.25-9.625l-1.016-2.915C463 754 463 754 463 752c-15.264 10.176-16.739 32.834-14.543 49.46.453 2.533.949 5.036 1.543 7.54-4.766 0-8.42-8.815-10.312-12.68-7.23-17.49-8.1-47.662 4.73-62.832 3.237-3.045 6.163-4.489 10.583-4.489q1.254 4.437 2.5 8.875l.722 2.551.684 2.442.635 2.253C460 747 460 747 460 749h2l-1-3c-.485-6.35.197-11.916 2-18z"></path><path fill="#ece2b2" d="M569 730c5.808-.58 9.396.351 13 5 5.165 9.567 6.363 20.105 6.25 30.812l-.03 2.928c-.263 15.74-3.043 31.21-15.22 42.26l.656-2.317c5.327-20.493 2.426-43.231-11.656-59.684a1621 1621 0 0 1 12-17l-6 3 1-5z"></path><path fill="#ec6d07" d="M631 537c1.694 3.047 2.495 5.828 3.125 9.25l.508 2.703L635 551h3c1.557 3.114-.126 4.638-1.687 7.625l-1.696 3.266L633 565q-1.036 2.185-2.062 4.375c-2.825 5.615-6.291 9.667-11.938 12.625q-1.847 1.058-3.688 2.125c-10.793 6.11-28.472 2.513-38.746-3.941-3.583-2.708-3.583-2.708-3.441-6.684.947-3.79 1.238-4.444 4.875-5.5l2.062 2.25c6.941 6.941 16.627 9.967 26.191 7.066 7.49-3.425 13.346-10.274 13.905-18.708-.057-3.533-.233-7.05-.451-10.577-.227-6.584-.227-6.584 2.675-9.078L625 538c2-1 2-1 6-1zM394 536c1.657.875 3.3 1.776 4.938 2.688l2.777 1.511c3.883 3.06 3.525 6.49 2.723 11.051-1.044 8.394 1.296 17.824 8.375 23.102 1.68.973 3.431 1.82 5.187 2.649l2 1c10.944 1.33 19.645-1.891 26-11l7 4c-1.898 8.163-7.485 11.363-15 14-15.195 3.095-32.625.69-42.625-12.188-7.228-10.785-7.255-23.98-2.375-35.812z"></path><path fill="#eee4b5" d="M499 745c4.394 2.794 5.657 4.735 6.363 9.86l.498 3.378.452 3.512.51 3.559q.616 4.341 1.177 8.691c4.726 1.667 4.726 1.667 6.41-.414 2.703-4.397 2.739-9.444 3.319-14.5.717-5.398 1.7-8.903 5.271-13.086 5-1.5 5-1.5 8 0 .88 14.938-1.84 26.25-13.438 36.062-6.843 2.503-11.749-.052-16.676-4.785-6.923-8.357-12.73-21.38-9.887-32.277 2.087-2.087 5.445-.554 8 0z"></path><path fill="#0c0e0f" d="M622 429c3.99 1.995 3.97 7.702 4.375 11.75-.484 15.603-12.35 27.048-24.812 34.688-12.246 7.536-21.703 17.465-27.562 30.562l-1.16 2.46c-2.556 5.516-3.977 10.264-3.938 16.403l.01 2.685.025 2.764.014 2.822q.018 3.433.049 6.866c-5.062 0-5.423-.823-8-5-3.947-11.842 5.987-26.776 11.124-37.122.99-2.029.99-2.029 1.876-4.879h2l.375-2.187c.616-2.77 1.51-5.21 2.625-7.813h2l.688-2.187c3.074-6.587 9.094-9.687 15.125-13.188 13.124-7.848 23.822-16.094 24.812-32.438l.226-3.52.149-2.668z"></path><path fill="#f0d107" d="M519 385c2.723 2.723 2.593 4.834 3.188 8.625 1.032 6.01 2.853 11.082 5.5 16.562 3.218 6.721 4.21 12.293 3.312 19.812h-3l-.812 2.813c-1.1 2.95-1.812 4.243-4.188 6.187-5.06-5.52-5.46-11.988-4-19-6.35 4.619-10.007 10.053-11 18-8.558-8.558-4.12-31.993-.977-42.383.928-2.573 1.9-5.103 2.977-7.617h1l.516 2.668.734 3.52.703 3.48c1.116 3.551 2.558 5.601 5.047 8.332l-.035-2.309c-.055-6.33.198-12.417 1.035-18.69z"></path><path fill="#0c0e0f" d="m402 429 .262 2.527c2.064 16.532 10.785 26.72 24.719 35.52C440 475.47 440 475.47 440 479l-20-10 2.125 1.32c14.054 8.823 24.42 17.515 31.875 32.68q.923 1.8 1.851 3.598c10.08 19.687 10.08 19.687 5.961 30.527-2.208 2.284-3.688 2.622-6.812 2.875l.511-2.52c3.24-23.091-9.198-46.294-28.012-59.23A458 458 0 0 0 421 474c-14.727-9.723-24.614-19.63-22.52-38.59 1.382-6.41 1.382-6.41 3.52-6.41z"></path><path fill="#446e52" d="M742 580c.469 10.758-.85 20.04-5 30h-2l-.812 2.938C733 616 733 616 730 617l-.812 1.813C727.363 622.174 723.944 625 720 625v2l-2.687 2c-6.699 5.384-8.871 13.874-10.312 22l2.011-2.633 2.676-3.492 1.318-1.727c2.911-3.794 5.911-7.492 8.995-11.148l2 1-.989 1.547c-3.252 5.41-5.007 10.493-6.336 16.656-1.324 5.482-2.667 8.858-7.675 11.797-4.244.912-7.156.721-10.562-2.187-2.427-4.747-.943-7.138 1.875-11.25 2.455-3.708 3.562-7.269 4.687-11.562 3.101-11.564 8.556-17.62 18.562-23.875 10.838-7.14 15.625-19.534 16.438-32.125 1-2 1-2 2-2zM283 580l.078 2.055c1.1 18.047 11.157 30.035 26.688 38.355 3.787 2.694 5.342 6.37 6.672 10.715l.75 2.336.813 2.539c2.248 7.304 2.248 7.304 6.25 13.688 2.729 3.606 2.386 5.858 1.75 10.312-2.606 3.142-3.852 4.062-7.961 3.84-9.75-2.695-12.657-17.395-15.424-25.995-.774-2.324-1.67-4.587-2.615-6.846 6.816 5.147 13.408 12.306 15 21h3c-2.086-13.395-6.797-21.788-18.645-28.578C284.622 614.527 279.915 598.18 281 582c1-2 1-2 2-2z"></path><path fill="#efcb09" d="M617 544c4.35 6.526 2.735 16.349-1 23-5.303 8-11.661 10.612-21 10-6.688-1.48-13.67-4.01-16-11a404 404 0 0 1 5.25-3.062l2.953-1.723c4.07-1.768 5.63-1.014 9.172 1.41 3.316 1.737 5.072 1.284 8.625.375l.148-1.828.227-2.422c.07-.789.14-1.578.21-2.39.876-4.987 2.8-6.944 7.04-9.61l2.477-1.578z"></path><path fill="#467054" d="M651 596c-5.395 12.351-23.652 20.118-36.312 21.312-10.754-.911-20.07-5.695-27.688-13.312a63 63 0 0 0-3.625-2.062C580 600 580 600 579 598l3.5 1.375c20.393 6.702 44.697 5.268 64.426-2.605C649 596 649 596 651 596z"></path><path fill="#ece1b1" d="M451.44 738.69c3.369 1.726 3.394 2.613 3.563 6.313-.514 4.315-1.632 7.656-3.5 11.562-2.798 6.603-3.4 12.313-3.5 19.438l-.058 2.544c-.42 15.357-.42 15.357 2.057 30.455-4.766 0-8.419-8.814-10.312-12.68-2.7-6.532-3.82-12.502-3.785-19.594l.01-3.496.025-3.605.014-3.676c.035-8.942.035-8.942 2.049-9.95 1.264 2.53 1.29 4.62 1.5 7.438.233 3.126.505 5.577 1.5 8.563l.228-1.861c.352-2.84.718-5.677 1.084-8.514l.358-2.926c2.838-21.684 2.838-21.684 8.767-20.012z"></path><path fill="#41694e" d="M588 847c0 7.431-10.986 12.829-17 16-12.028 3.849-24.845-.593-36.414-4.008-8.055-2.228-15.388-3.378-23.773-3.367l-3.05-.004c-7.222.102-13.288 1.079-20.118 3.504-2.644.875-2.644.875-6.644.875v2c-14.851 4.169-29.284 3.579-41-7-2.5-2.875-2.5-2.875-4-5l1-2 1.503 1.426c17.03 15.608 38.894 8.981 58.7 2.406 14.745-4.387 33.205-1.65 46.89 5.219 12.138 6.044 28.836 2.064 39.031-5.739 1.679-1.394 3.332-2.769 4.875-4.312z"></path><path fill="#f0ca07" d="M407 546c5.75.875 5.75.875 8 2v2l4 2-.125 3.75c-.008 4.454-.008 4.454 2.125 8.25 3.51 1.518 4.527 1.312 7.75-.812 2.283-1.98 2.283-1.98 3.25-4.188 5.688 1.251 8.729 3.041 13 7-5.898 8.536-13.9 12.326-24.316 10.863-7.665-2.466-13.331-8.957-14.684-16.863-.41-4.783-.204-9.334 1-14"></path><path fill="#0d0f10" d="M491 475c1.56 2.341 2.583 4.28 3.688 6.813 3.813 7.612 9.75 11.76 18.312 12.188 5.503-.43 8.715-.71 11-6a282 282 0 0 1 5-5c1.71-1.967 3.353-3.978 5-6 1.756 3.512-.384 7.116-1.563 10.688l-.729 2.396c-2.154 6.572-5.285 13.63-12.709 14.916v2c-9.592 1.596-15.519 1.124-21.87-7.094-4.539-7.663-6.302-16.11-6.13-24.906z"></path><path fill="#a03315" d="M640 552c1.392 13.983-5.143 25.831-16.812 33.312-10.763 5.949-22.413 8.058-34.188 3.688l-2.535-.825c-7.876-2.69-17.481-6.192-23.465-12.176a89 89 0 0 0-4-2q2.873-1.223 5.75-2.437l3.234-1.371c2.357-.932 4.546-1.67 7.016-2.192v-2l9-3c-5.143 6.715-5.143 6.715-9 7-1.6 7.17-1.6 7.17 3 10 4.717 2.692 9.025 3.832 14.312 4.688l2.285.377c10.447 1.65 18.562 1.862 26.403-6.065l2.375-1.187c6.333-4.373 8.738-12.147 11.414-19.078 2.982-6.735 2.982-6.735 5.21-6.735z"></path><path fill="#ede3b3" d="m553.19 728.88 3.856.055 2.957.07c3.879 8.488 2.383 17.638.25 26.438l-.476 2.005c-1.21 4.58-2.945 7.837-5.774 11.557h-1l-.192-2.781c-.752-7.533-1.573-12.354-7.25-17.57-3.134-3.315-2.744-7.4-2.809-11.773l-.078-3.195c.717-5.851 5.792-4.892 10.516-4.805z"></path><path fill="#e9ddad" d="m466 781 .828 1.668c4.437 9.075 4.437 9.075 10.422 17.145 4.921 5.464 5.637 11.178 3.75 18.188-2.996 3.551-5.1 3.183-10 4l-3-12 .125 4.813c.1 3.842.084 4.873-2.125 8.187h-4c.2-1.943.2-1.943.402-3.926 1.008-10.064 1.861-20.098 2.256-30.206.241-5.666.241-5.666 1.342-7.868z"></path><path fill="#436b50" d="m387 730-.063 2.408c-.527 23.01.083 39.77 14.626 58.467C405.774 796.367 411 803.771 411 811c-2.827 0-3.052-1.121-4.625-3.375l-1.352-1.898C404 804 404 804 404 802l-1.687-.687c-15.383-8.731-20.868-29.543-20.578-45.965C383.745 730 383.745 730 387 730zM637 730c10.119 15.179 5.61 43.731-2.937 58.625-2.276 3.612-4.999 6.41-8.063 9.375q-2.596 2.56-5.187 5.125l-2.606 2.57c-2.328 2.296-2.328 2.296-4.207 5.305.289-9.097 3.642-13.804 9.223-20.777 11.47-14.572 14.157-29.238 13.902-47.41l-.028-3.752q-.035-4.53-.097-9.06z"></path><path fill="#436c50" d="m605 823 2 1c-.647 19.757-8.296 34.849-19.835 50.393-1.8 2.483-3.47 5.052-5.165 7.607-2.5 3-2.5 3-6 3-2.184-7.462 1.502-11.698 6.688-16.562C595.145 856.375 601.467 839.647 605 823z"></path><path fill="#446d51" d="M417 825h2l.777 3.156c4.528 17.34 12.866 33.61 27.223 44.844 2.748 3.664 2.147 7.607 2 12-5.057 0-5.8-1.28-9-5l-1-3-2-1a109 109 0 0 1-3-5l-1.648-2.761C424.23 854.475 417.75 841.294 417 825z"></path><path fill="#eecd0c" d="m405 545-.29 2.09c-1.158 9.825-.575 20.79 8.103 27.262 1.68.973 3.431 1.82 5.187 2.648l2 1c10.407 1.265 18.273-2.045 26-9-1.676 6.33-6.432 9.914-12.25 12.375-13.766 2.294-24.332.138-32.93-11.434-4.129-6.672-6.062-13.292-3.82-20.94 4.7-4 4.7-4 8-4z"></path><path fill="#e9deae" d="M554 784c2.94 2.94 2.34 6.065 2.313 10l-.009 2.332c-.11 6.003-1.218 11.04-3.304 16.668-.72 2.656-1.356 5.324-2 8-6.75-.625-6.75-.625-9-4-2-9.484 1.4-15.311 6.738-22.676 2.345-3.261 3.8-6.59 5.262-10.324z"></path><path fill="#d75c0b" d="M505 405c-.01.726-.02 1.452-.032 2.2a2038 2038 0 0 0-.093 9.925l-.05 3.46-.02 3.36-.032 3.079c.249 3.259 1.078 5.927 2.227 8.976l2-3 .332 2.195c.897 5.467 1.916 9.926 4.668 14.805v2l1.938.563c3.26 2.272 2.935 4.611 3.062 8.437-.937 3.438-.937 3.438-2 6-6 0-6 0-7.5-2.75-1.533-3.488-1.562-6.216-1.375-10 .194-6.75-1.99-11.39-5.125-17.25-4.299-8.45-3.52-15.859-1.437-24.87.538-2.257.538-2.257.437-5.13 1-2 1-2 3-2z"></path><path fill="#0d0f11" d="M544 861c0 4 0 4-1 6a1333 1333 0 0 1-3.812-1.25l-2.508-.82a97 97 0 0 1-5.235-1.985c-14.353-5.835-26.873-3.726-41.195.567C488 864 488 864 486 863v-2h-5c18.686-9.9 44.048-8.543 63 0z"></path><path fill="#ede2b3" d="M478 738c.763 6.057.291 9.456-4 14-1.84 3.78-2.35 7.137-2.625 11.312l-.227 3.238L471 769c-7.135-6.693-8.854-15.43-6.203-24.824 2.02-5.446 6.874-12.505 13.203-6.176z"></path><path fill="#446d52" d="M376 331c4.29 2.343 6.868 4.21 7.242 9.293A108 108 0 0 1 382 350l-8.79-1.465L370 348l-6-1c-.417-1.431-.808-2.87-1.187-4.312l-.668-2.426c-.19-2.953.556-3.52 2.855-5.262 2.406-1.203 3.95-1.1 6.625-1.062l2.477.027L376 334z"></path><path fill="#40664d" d="M855.46 248.47c10.787 2.257 22.174 8.325 29.539 16.531l2.813 2.688c2.187 2.312 2.187 2.312 2.187 4.312l3 1c2.008 2.363 2.008 2.363 4.125 5.313l2.133 2.925c1.508 2.39 2.31 4.01 2.742 6.762-2.79-2.707-5.398-5.44-7.875-8.437-5.773-6.77-12.412-11.226-20.125-15.563l-2.31-1.305c-2.642-1.49-5.29-2.969-7.94-4.445l-2.618-1.467c-4.299-2.372-8.376-4.446-13.132-5.782 2.586-3.88 3.196-3.074 7.461-2.532z"></path><path fill="#c1a364" d="M569 730c5.808-.58 9.396.351 13 5 5.345 9.902 6.317 20.572 6.125 31.625l-.027 3.043A974 974 0 0 1 588 777h-1l-.076-1.88c-.116-2.811-.239-5.622-.361-8.432l-.12-2.96-.127-2.841-.11-2.619c-.133-2.433-.133-2.433-1.206-5.268h-2l1 18h-1l-.304-1.984c-.468-3.008-.957-6.012-1.446-9.016l-.477-3.121c-1.054-6.365-2.663-11.234-5.773-16.88v-2l-5 1a56.5 56.5 0 0 1 4-7l-6 3z"></path><path fill="#381911" d="M406 543c2.858 2.858 1.708 4.104 1 8-.804 9.458 1.003 16.548 8.633 22.641 7.599 4.364 16.156 2.756 23.367-1.64 2.049-1.897 3.414-3.674 5-6l-3-3c3.897.565 6.421 1.704 9.687 3.874 4.908 3.07 9.71 4.767 15.312 6.125l-4 4c-3.872-1.936-7.534-4.284-11.25-6.503-2.52-1.656-2.52-1.656-4.75-1.497a81 81 0 0 0-3.687 3.313c-7.187 6.362-15.208 8.815-24.621 5.996-9.714-4.389-14.026-13.174-14.773-23.473.124-4.29 1.375-7.93 3.082-11.836z"></path><path fill="#132018" d="M511 571v2h-2l1 3-1.941.41c-6.892 1.715-10.538 4.199-15.06 9.59l-1.55 1.73c-3.255 3.676-6.155 7.54-8.957 11.57-3.588 4.087-7.284 3.9-12.492 3.7l5-5 2.687-2.813C480 593 480 593 482 593l.18-1.625c1.19-3.445 3.506-5.755 5.945-8.375l1.398-1.578C495.148 575.302 502.453 571 511 571z"></path><path fill="#d7590d" d="M567 367c3.25 1.625 2.192 4.989 2.168 8.398-.519 8.04-6.55 11.896-12.988 15.668-5.802 3.799-5.16 9.655-5.18 15.934-2-2-2-2-2-5h-2c-2.006-6.017-1.934-10.97 2-16 2.929-1.63 5.82-2.947 8.907-4.228 6.78-3.053 8.254-7.722 9.093-14.771z"></path><path fill="#457053" d="M172 248c.625 2.063.625 2.063 1 4-3.73 2.034-5.67 3-10 3v2h-4v2c-1.941 1.367-1.941 1.367-4.562 2.875l-2.766 1.613a274 274 0 0 1-4.719 2.617c-4.033 2.186-6.864 4.512-9.953 7.895l-2.203 2.367c-3.72 4.044-7.099 7.821-9.797 12.633-2.193-4.385 3.314-10.369 6-14 10.036-11.768 21.131-19.373 35-26l2.297-1.265C170 247 170 247 172 248z"></path><path fill="#0d0f10" d="M446 314c1 2 1 2 .063 4.125-3.268 8.841.407 14.317 4.937 21.875 3.167 5.289 2.839 12.035-.41 17.273-1.456 1.687-2.931 3.24-4.59 4.727-1.258-2.516-.792-3.34-.25-6.063.644-5.335-.575-9.482-2.187-14.5-3.513-11.112-3.608-17.095 2.437-27.438z"></path><path fill="#385843" d="M240 290h2v2l5-2-1.5 2.375c-1.665 2.41-1.665 2.41-1.5 4.625l4-2c-2.68 3.433-5.35 6.386-8.687 9.188C233.96 308.743 227.175 314.65 224 321c-2.563.625-2.563.625-5 1 1.288-6.727 4.675-10.81 9-16l1.874-2.625c3.273-3.658 7.193-6.46 11.125-9.375h-2z"></path><path fill="#c5a464" d="m553.19 728.88 3.856.055c2.957.07 2.957.07 3.945 2.164 1.153 3.312 1.244 5.907 1.199 9.406l-.02 3.344a45.6 45.6 0 0 1-1.168 8.156h-1l-.113-2.773-.199-3.602-.176-3.586c-.184-3.347-.184-3.347-3.512-5.039-4.001.25-6.662.61-9 4-1.2 3.1-1.2 3.1-2 6-2.07-3.416-2.297-6.162-2.312-10.125l-.05-3.195c.79-5.839 5.802-4.892 10.55-4.805z"></path><path fill="#b43816" d="M640 552c.762 9.942-1.114 18.368-9 25l-1.781 1.71c-5.116 4.812-11.832 10.819-19.22 8.29l4.626-3.25 2.77-1.957C620 580 620 580 623.311 578.063c6.248-4.795 8.714-12.171 11.477-19.328C637.772 552 637.772 552 640 552z"></path><path fill="#0d0e10" d="M349 318c.528 4.564.528 4.564-1.8 6.484l-2.512 1.266c-9.68 5.333-17.851 12.796-25.238 20.965-2.038 1.807-3.021 1.206-5.45.285 4.435-9.672 23.584-29 35-29z"></path><path fill="#e4dbab" d="M528 791c2.35 2.35 3.107 4.692 4.203 7.785a92 92 0 0 0 1.656 4.274c1.882 4.552 2.449 8.016 2.14 12.94a512 512 0 0 1-4.25-.874l-2.39-.493c-2.327-.624-4.25-1.48-6.36-2.632.714-4.467 1.566-8.888 2.5-13.312l.782-3.739C527 792 527 792 528 791z"></path><path fill="#0c0d0f" d="m703 313 8 2-4 2 2.875 2.188c3.697 3.102 5.412 5.66 4.75 10.625L714 332c-9.992-.235-9.992-.235-13-6-1.475-5.407-.902-8.241 2-13"></path><path fill="#c5a464" d="M567 742c6.558 1.64 6.573 7.909 7.852 13.91q.424 2.106.836 4.215l.398 2.025c.794 4.333 1.034 8.451.914 12.85l-2 1-.883-2.965c-2.426-7.861-5.051-14.44-10.117-21.035l-2-3z"></path><path fill="#0c0e0f" d="M578 316c4.544 1.41 5.905 4.667 7 9 1.196 8.035-.977 14.171-3.887 21.605-1.498 4.57-1.605 8.647-1.113 13.395-4.615-3.424-5.601-7.493-5-13 1.04-3.473 2.375-6.825 3.814-10.151 2.503-5.916 3.258-11.178.686-17.286z"></path><path fill="#e6dbab" d="M494 792c2.04 3.539 2.796 7.082 3.625 11.062.26 1.229.52 2.457.79 3.723C499 810 499 810 499 813l-13 3c3.854-16.893 3.854-16.893 8-24z"></path><path fill="#0c0c0f" d="M295 320c2 1 2 1 2 3l1.875.813c3.553 1.985 4.096 3.777 4.375 7.75C303 335 303 335 301 337c-1.875.23-1.875.23-4 .188l-2.125-.02C293 337 293 337 291 336c-1.842-7-.33-10.367 4-16"></path><path fill="#0e1011" d="M385 382c1 3 1 3 1.375 5.25.56 2.935.56 2.935 2.25 6.125 1.605 4.232 1.755 6.323.375 10.625-2.937 2.313-2.937 2.313-6 4l-2 2c-.9-6.3-.916-11.722 0-18l.375-3.875c.632-3.16 1.08-4.243 3.625-6.125"></path><path fill="#0d0f10" d="M458 610v2l-2.309.629c-11.528 3.44-18.247 9.63-26.43 18.234-5.852 5.529-12.1 4.551-19.387 2.074C408 632 408 632 408 631l2.676.316c10.57.715 14.93-2.112 22.324-9.316 15.044-13.021 15.044-13.021 25-12z"></path><path fill="#441c11" d="M618 542c4.478 2.24 3.363 8.702 3.385 13.092-.241 10.86-5.632 17.893-14.698 23.283-10.436 2.427-20.72-.014-27.688-8.375l1-2 1.504 1.242c7.408 5.876 14.767 8.734 24.12 5.508 9.408-4.878 12.527-11.432 12.5-21.75l.009-3.125c-.115-2.477-.527-4.495-1.133-6.875l1-1z"></path><path fill="#3f644b" d="m541 714-1 3h13v1l-3.262.664C540.12 720.72 531.766 723.426 523 728c-1.313-2.954-1.17-3.724.559-6.54 2.674-2.695 5.099-4.173 8.504-5.835l3.16-1.586C538 713 538 713 541 714z"></path><path fill="#17271d" d="M623 646c-1.309 4.322-2.486 5.689-6.625 7.438-7.31 3.385-13.385 6.714-16.375 14.562-2-1-2-1-3.062-3.625.165-8.925 12.173-13.903 19.188-17.45 4.543-2.091 4.543-2.091 6.875-.925z"></path><path fill="#0c0c0f" d="M660 337c1.815 1.815 1.327 3.595 1 6-2.047 1.766-2.047 1.766-4.75 3.25l-2.672 1.516c-2.228 1.066-4.167 1.76-6.578 2.234-1.444-2.889-1.377-4.796-1-8 4.739-5.611 6.869-6.297 14-5"></path><path fill="#456f53" d="M870 258c6.59.857 10.635 1.637 15 7l2.813 2.688C890 270 890 270 890 272l3 1c2.008 2.363 2.008 2.363 4.125 5.313l2.133 2.925c1.508 2.39 2.31 4.01 2.742 6.762-2.79-2.707-5.398-5.44-7.875-8.437C887.947 272.319 880.499 267.25 872 263a78 78 0 0 1-2-5z"></path><path fill="#3e624a" d="m326 307-1.566 1.32-1.997 1.805-2.003 1.758c-2.013 2.973-1.05 4.656-.434 8.117-.996 3.21-.996 3.21-2.437 6.375l-1.434 3.21L315 332h-1c-.226-5.419.533-9.775 2-15-2.709-1.354-5.01-1.065-8-1l-2 4v-3l-2.875 1.563C300 320 300 320 298 319c6-4.512 12.022-7.391 19.082-9.922 2.86-.983 2.86-.983 5.18-2.281C324 306 324 306 326 307"></path><path fill="#ebc913" d="M620 562c1.944 5.833-3.445 12.277-7.312 16.562-9.104 4.87-19.094 3.635-28.688.438-1.825-2.067-1.825-2.067-3.688-4.563l-1.887-2.504C577 570 577 570 578 568l2.062 2.25c6.941 6.942 16.627 9.968 26.191 7.067 7.043-3.22 10.577-8.31 13.746-15.316z"></path><path fill="#5e2513" d="m654.31 522.94 3.8.027 2.887.036v2l-3.472.332-4.59.48-2.28.213c-5.081.55-9.054 1.743-13.657 3.974l1.093 2.536c4.308 10.804 6.193 21.173 1.907 32.465-.954-2.86-1.076-4.378-.957-7.317.553-12.323.553-12.323-3.168-23.906-.875-1.777-.875-1.777-.875-4.777l-3-1q2.34-.976 4.687-1.938l2.637-1.09c5.08-1.846 9.591-2.085 14.988-2.035z"></path><path fill="#0c0c0f" d="M374 334c2 2 2 2 1 5h-2v-2l-7 1-1 4c4.949 2.165 9.931 4.133 15 6l-4-10h4c1.603 4.208 2.1 7.518 2 12l-8.79-1.465L370 348l-6-1c-.417-1.431-.808-2.87-1.187-4.312l-.668-2.426c-.19-2.953.556-3.52 2.855-5.262 3.013-1.507 5.683-1.178 9-1"></path><path fill="#426b4f" d="M842 298c4.172.519 6.254 1.712 9.313 4.563l2.113 1.94L855 306l1-2h4a974 974 0 0 1 3.563 8.25l1.037 2.356.966 2.285.905 2.094C867 321 867 321 866 325l-8-15h-3c-13-7.182-13-7.182-13-12"></path><path fill="#0c0d0f" d="m575 430 2 1-1.504 1.145c-10.12 8.2-14.06 17.88-17.863 29.99-5.851 18.344-5.851 18.344-12.634 22.865 1.368-3.599 2.995-6.923 4.813-10.312 2.474-4.883 4.296-9.718 5.875-14.938l.637-2.094a294 294 0 0 0 2.335-8.102c2.532-8.281 9.671-14.418 16.34-19.555z"></path><path fill="#0d1010" d="M512 694h1c3.108 17.457 3.108 17.457 2 24l-3 2c-5.122-3.415-3.489-9.295-3-15 .772-3.754 1.778-7.37 3-11"></path><path fill="#6d2813" d="M441 563c3.898.566 6.421 1.705 9.688 3.875 4.907 3.07 9.71 4.766 15.312 6.125l-4 4c-3.873-1.936-7.535-4.284-11.25-6.504-2.521-1.655-2.521-1.655-4.75-1.496a81 81 0 0 0-3.813 3.375c-5.507 4.91-5.507 4.91-9.187 5.625-2.141-.973-2.141-.973-4-2l2.011-.664c6.02-2.162 9.371-4.031 12.988-9.336z"></path><path fill="#3f644b" d="M172 248c.625 2.063.625 2.063 1 4-3.73 2.034-5.67 3-10 3v2h-4v2c-3.576 1.238-6.337.75-10 0 2.697-3.23 6.22-4.779 9.938-6.562l1.88-.92q2.59-1.264 5.182-2.518l2.316-1.277C170 247 170 247 172 248"></path><path fill="#b94710" d="M510 314c0 3.622-.832 4.324-3 7.125-5.05 7.348-3.241 13.75-1 21.875v3l-3 1-1 2c-4.718-7.077-3.706-16.641 0-24 2.343-3.963 4.737-7.736 8-11"></path><path fill="#0d1111" d="M490 588c-8.575 14.715-8.575 14.715-16.875 15.25L470 603l5-5 2.688-2.812C480 593 480 593 482 593l.438-1.937c1.147-4.208 3.647-3.146 7.562-3.063"></path><path fill="#426b50" d="m369 763 .262 2.606c1.57 13.218 5.46 23.827 13.738 34.395l-1 2c-11.024-10.052-16.065-23.127-15-38 1-1 1-1 2-1z"></path><path fill="#35543f" d="M417 468c4.49.624 8.199 2.391 12.188 4.438l1.904.947c2.649 1.34 4.796 2.503 6.908 4.615l1.918.352c2.937.914 3.737 2.481 5.395 5.023l1.613 2.398C448 488 448 488 447.001 491l-1.938-2q-1.529-1.503-3.062-3l-1.774-1.797C433.357 477.623 425.34 473.42 417 469z"></path><path fill="#0c1110" d="M666 607c3.113 4.67 2.039 9.013-.437 13.75-5.129 4.503-11.706 6.972-18.562 6.25 1.602-1.068 3.213-2.127 4.867-3.113 6.956-4.155 12.772-8.495 14.133-16.887z"></path><path fill="#0c0e0f" d="m357 608 .121 1.758c1.176 8.794 6.593 11.588 14.441 14.617L374 625v2c-7.873-.311-14.892-1.433-19-9-2.281-10-2.281-10 2-10z"></path><path fill="#436c51" d="M656 764h2c-.661 13.27-3.423 26.114-13 36-2.121.625-2.121.625-4 1l1.137-1.617C649.87 788.123 653.846 777.485 656 764z"></path><path fill="#5f2513" d="M374.13 522.68c5.933.23 15.998 1.585 18.867 7.324h-3l3 3h-7l1-4c-8.975-3.023-17.622-3.659-27-4 1.86-3.721 10.114-2.361 14.133-2.324"></path><path fill="#40664d" d="m387 730-1 27h-2v8c-6.23-6.23-.653-24.975 1-33 1-2 1-2 2-2"></path><path fill="#25392d" d="m238 302 2 1c-.652.63-1.304 1.258-1.977 1.906-4.115 4.03-8.052 7.908-11.336 12.656-2.206 3.125-3.65 4.438-7.687 4.438 1.97-8.536 5.5-10.84 12.87-14.762 2.454-1.427 4.292-3.08 6.13-5.239z"></path><path fill="#0c0d0f" d="M512 287c7.232 2.974 11.321 11.471 12 19 .077 6.365-1.406 10.773-5 16l-2 1 .656-1.582c4.815-12.728 2.28-23.648-5.656-34.418"></path><path fill="#3f634b" d="m446 611 1 2c-5.913 3.999-11.061 7.3-18 9l-2.25 1.688C425 625 425 625 422 624l2.195-1.574 2.93-2.114 3.055-2.199a67 67 0 0 0 6.07-5.113c3.448-2.507 5.582-2.417 9.75-2"></path><path fill="#426a4f" d="M840 315c2.897 6.452 5.505 12.904 6 20-3.497-1.166-3.57-1.538-5.043-4.71l-1.064-2.274-1.08-2.39-1.116-2.368C835 317.413 835 317.413 835 314c3-1 3-1 5 1z"></path><path fill="#0f1312" d="m513.44 864.62 2.262.018c5.322.125 9.511.911 14.3 3.357l-1 3-1.765-.656c-4.937-1.677-16.984-5.595-21.234-1.344-2.655.455-5.322.702-8 1 0-2 0-2 2.973-3.477 4.2-1.793 7.943-1.983 12.465-1.898z"></path><path fill="#142119" d="m538 859 3.25 1.063L544 861c0 4 0 4-1 6l-15-5v-3c3.704-.758 6.406-1.235 10 0"></path><path fill="#436c50" d="M633 695c1.537 3.075-.002 4.7-1.375 7.75-3.39 7.537-3.844 14.559-4.143 22.68-.265 5.354-.265 5.354-2.482 7.57-.642-13.92-1.192-26.544 8-38z"></path><path fill="#0c0c0f" d="M511 584v2l-2.125.594c-9.97 3.143-15.436 8.704-20.875 17.406h-1c-.835-7.293 5.562-12.732 11.273-16.5 4.31-2.18 7.894-3.5 12.727-3.5z"></path><path fill="#e6dbab" d="M556 807c1.857 2.785 2.452 4.268 3.125 7.438l.508 2.308C560 819 560 819 560 823c-5.875.125-5.875.125-7-1 .126-5.226.639-10.277 3-15"></path><path fill="#0c0f0f" d="M725.25 320.75c2.951 1.342 4.598 2.86 6.75 5.25l-3 2-1 3c-3.653-1.25-4.78-1.671-7-5 .763-6.412.763-6.412 4.25-5.25"></path><path fill="#446f52" d="M390 697c10.133 7.962 10.381 25.438 8 37h-1l-.043-3.156C396.654 720.11 394.543 711.09 391 701a95 95 0 0 1-1-4z"></path><path fill="#41684d" d="M704 319c5.458 1.365 6.776 4.125 9 9l-1 3c-8.055-2.983-8.055-2.983-9-7 .375-2.75.375-2.75 1-5"></path><path fill="#487457" d="M294 324c3.653 1.25 4.78 1.671 7 5-.682 4.89-.682 4.89-2.812 5.625C296 335 296 335 293 333c-.437-6.125-.437-6.125 1-9"></path><path fill="#dcd2a2" d="M466 805c2.308 3.462 2.27 4.918 2.25 9l.016 3.188C468 820 468 820 466 823h-4q.424-3.658.875-7.312l.238-2.092c.446-3.552.867-5.566 2.887-8.596"></path><path fill="#3f644b" d="M591 617c2.842 1.362 4.96 2.552 7 5v2l2.313.375C603 625 603 625 606 627l-2 1-1 3c-5.647-1.984-7.878-4.192-10.188-9.687l-1.043-2.45z"></path><path fill="#18281e" d="M574 493h1c1.456 6.693 1.269 12.346-3 18-3.25 1.063-3.25 1.063-6 1 1.789-4.576 3.82-9.017 5.879-13.477 1.19-2.568 1.19-2.568 2.121-5.523z"></path><path fill="#446e51" d="M486 574a392 392 0 0 1-4.625 5.438l-1.293 1.564c-3.133 3.577-5.346 4.727-10.082 4.998 0-3.802.644-3.833 3.625-5.937l2.195-1.567c8.08-5.546 8.08-5.546 10.18-4.496z"></path><path fill="#41674e" d="M659 339c-.154 4.321-2.78 5.368-6.21 7.266C651 347 651 347 648 347c.363-5.452.363-5.452 3.25-7.938 3.122-1.206 4.602-1.051 7.75-.062"></path><path fill="#0c0c0f" d="M324 308q-1.682 1.258-3.375 2.5l-1.898 1.406C317 313 317 313 315 313v2l-3.375.25c-3.932.813-4.544 1.027-5.625 4.75v-3l-2.875 1.563C300 320 300 320 298 319c6.86-5.158 13.963-8.106 22-11 2-1 2-1 4 0"></path><path fill="#497658" d="M538 573c15 9.7 15 9.7 15 13-5.821-.284-9.27-2.719-13-7-1.437-3.375-1.437-3.375-2-6"></path><path fill="#375741" d="M512 534h2c1.982 11.721 1.982 11.721 2.563 16.062.358 2.99.358 2.99 1.437 5.938h-5c-.708-7.356-1.147-14.61-1-22z"></path><path fill="#41684d" d="M183 306c-2 4-2 4-4 4-1.748 4.304-3.377 8.648-5 13h-1c-.382-5.857.285-11.711 3-17 2.928-1.297 3.886-1.038 7 0"></path><path fill="#3d624a" d="M130 236v3h11v1l-3.219.227c-8.543.743-14.415 1.592-20.78 7.773l-3 2c2.175-5.34 9.782-14 16-14z"></path><path fill="#192a1f" d="M494 857v2l5 1c-2.626 1.75-4.107 2.453-7.062 3.188l-2.098.542C488 864 488 864 486 863v-2h-5c4.155-2.237 8.239-4 13-4"></path><path fill="#18291e" d="M458 611c14 0 14 0 16 4l-3.25-.187c-3.859.192-5.038.584-7.75 3.187v-2l-5-1 2-2z"></path><path fill="#c65816" d="M544 408c4.7 4.06 5.311 8.256 4.75 14.25l-.266 3.203C548 428 548 428 546 429c-.958-6.98-1.497-13.973-2-21"></path><path fill="#203426" d="m513 575 4 1h-3v10l3 1h-3v4l3 1c-2 1-2 1-5-1-2.646.312-2.646.312-5 1l3-5-3-1h4v-2h2z"></path><path fill="#33523e" d="M842 298c4.172.519 6.254 1.712 9.313 4.563l2.113 1.94C855 306 855 306 854 310q-2.159-1.652-4.312-3.312l-2.426-1.864C842 300.58 842 300.58 842 298"></path><path fill="#436b50" d="M828 316c2.448 3.03 4.095 6.076 5.688 9.625l1.324 2.914C836 331 836 331 836 333c-4.054-1.351-4.365-3.185-6-7v-2l-4-2z"></path><path fill="#2d4636" d="M364 356c3 1 3 1 3.71 3.016 2.103 3.236 5.37 2.662 8.915 2.734l2.14.09c1.745.07 3.49.118 5.235.16v1h-21c-1.168-3.503-.773-3.975 1-7"></path><path fill="#16251b" d="M336 326c.493 3.55.354 4.615-2.125 7.313-3.275 1.922-5.143 2.034-8.875 1.687 7.2-9 7.2-9 11-9"></path><path fill="#657a55" d="M314 423h2v4h2q1.691 3.342 3.375 6.688l.96 1.896c1.72 3.42 3.31 6.836 4.665 10.416-3.976-3.67-6.68-7.352-9.312-12.062l-1.088-1.853c-1.921-3.385-2.6-5.098-2.6-9.084z"></path><path fill="#0c0f10" d="M669 327c5.875 2.75 5.875 2.75 7 5l-4 4-5-4c.875-3.875.875-3.875 2-5"></path><path fill="#63341e" d="M574 732c-1.617 3.43-3.576 6.563-5.625 9.75l-1.914 2.984L565 747c-1.668-5.003.37-10.32 4-14.062 2-.937 2-.937 5-.937z"></path><path fill="#0c0c0f" d="M648 382c1 3 1 3 1 6l2 1v-6c3 2 3 2 3.375 4.5C654 390 654 390 651 392c-2.187-.375-2.187-.375-4-1-1.05-3.779-1.11-5.65 1-9"></path><path fill="#304939" d="M706 308c1.649.449 3.294.91 4.938 1.375l2.777.773C716 311 716 311 717 313c-4.76 1.974-7.965 2.007-13 1l3-1z"></path><path fill="#15241b" d="M623 646c-1.05 5.548-4.18 6.114-9.102 7.52L612 654c1.084-4.878 5.338-10.831 11-8"></path><path fill="#1a2b20" d="M511 571v2h-2l1 3c-4.63 1.016-8.345.838-13 0 1.474-2.948 3.317-2.821 6.438-3.625 1.483-.39 1.483-.39 2.996-.79C509 571 509 571 511 571"></path><path fill="#882e14" d="M511 450c2.721 2.721 2.607 4.848 3.125 8.625l.508 3.602L515 465h2v2h-6z"></path><path fill="#0c0c0f" d="M664 621c-4.48 4.95-10.437 6.492-17 6 9.873-6.582 9.873-6.582 17-6"></path><path fill="#3f634b" d="M376 331c7.02 4.779 7.02 4.779 6.938 9.875L382 344l-3-6-4 1-1-5h2z"></path><path fill="#41674d" d="M717 300c1.5 1.25 1.5 1.25 3 3l2.688 2.688L725 308l-15-6c0-4.38 4.007-2.876 7-2"></path><path fill="#121a17" d="M242 293c-2.595 3.893-4.498 4.131-9 5l-3-2c8.162-6.838 8.162-6.838 12-3"></path><path fill="#0c0e0f" d="M483 714c7.522.894 12.331 2.965 18 8l-1 2-2.437-1.75c-3.35-2.254-6.886-3.788-10.61-5.32C485 716 485 716 483 714z"></path><path fill="#3c5e47" d="m677 313-1 5 2.813.875C682 320 682 320 685 322l-1 2c-12-6-12-6-12-9 3-2 3-2 5-2"></path><path fill="#1e110f" d="M618 542c3.861 1.93 3.107 5.736 3.088 9.596l-.025 2.091-.014 2.127q-.02 2.594-.049 5.186h-2l-.184-2.922-.253-3.828-.247-3.797c-.213-3.301-.213-3.301-.914-5.844C617 543 617 543 618 542z"></path><path fill="#40654c" d="M577 606h2v2l3 1v4h2l-1 3a396 396 0 0 1-4-2.375l-2.25-1.336C575 611 575 611 575 609l2-2z"></path><path fill="#3e624a" d="m871.69 255.81 2.387.52c1.926.667 1.926.667 2.926 2.668h-6v3c-8-4-8-4-8-6 3.214-1.038 5.409-.941 8.687-.188"></path><path fill="#0c0c0f" d="M541 714q-3.93 2.294-7.875 4.563l-2.262 1.326-2.168 1.24-2 1.158C525 723 525 723 523 722c12.325-9.892 12.325-9.892 18-8"></path><path fill="#507655" d="M709 427c-.548 4.618-2.59 7.982-5.062 11.812l-1.143 1.81A682 682 0 0 1 700 445c-1.332-2.665-.677-3.119.652-5.695l1.104-2.168 1.181-2.261 1.17-2.286C706.973 427 706.973 427 709 427z"></path><path fill="#132118" d="M532 581c4.595 3.55 7.765 6.477 10 12-3.255-.561-4.998-1.331-7-4-.687-2.687-.687-2.687-1-5h-2z"></path><path fill="#416a4f" d="M501 545c1.744 5.233-2.576 9.134-6 13h-2q.989-2.505 2-5l.695-1.855c1.972-5.034 1.972-5.034 5.305-6.145"></path><path fill="#18281e" d="M539 501h1c1.206 12.002 1.206 12.002-3.5 15.25L533 518a206 206 0 0 1 3.563-8.5c1.194-2.907 1.97-5.413 2.437-8.5"></path><path fill="#2b4434" d="m798 312 4 2 1-2c.7 1.432 1.384 2.87 2.063 4.313l1.16 2.425C807 321 807 321 806 324a987 987 0 0 1-4-4.875l-2.25-2.742C798 314 798 314 798 312"></path><path fill="#e6d7a4" d="M515 799c.982 4.053 1.082 7.839 1 12h-4q.212-2.437.438-4.875c.08-.905.162-1.81.246-2.742.582-4.383.582-4.383 2.316-4.383"></path><path fill="#3e624a" d="M450 615c-1 2-1 2-3.312 3.375-2.672 1.615-4.57 3.35-6.688 5.625l-3-1c9.302-9.85 9.302-9.85 13-8"></path><path fill="#1b2c21" d="M559 592c6.27.261 10.615 2.434 15 7 .727 2.2.727 2.2 1 4l-1.215-1.172c-4.535-4.155-9.062-6.622-14.785-8.828z"></path><path fill="#6f835b" d="M384 392c2.863 2.365 3.909 4.252 4 8-1.937 2.313-1.937 2.313-4 4-1.532-4.084-.63-7.795 0-12"></path><path fill="#3d6049" d="M422 625v2l-2.152.367-2.786.508-2.777.492c-2.467.379-2.467.379-3.285 2.633v-2l-5-1v-2l2.047.035c.892.01 1.784.018 2.703.027l2.672.036c2.962-.113 5.643-1.098 8.578-1.098"></path><path fill="#0c0c0f" d="m318 317 2 1c-1.543 4.72-3.078 9.417-5 14h-1c-.506-6.073.958-9.772 4-15"></path><path fill="#1a2b20" d="m604 654 2 1-2.5 2.125c-2.944 3.386-2.788 4.557-2.5 8.875l-2 2c-2-7-2-7 5-14"></path><path fill="#18291e" d="M538 596c5.085 1.216 6.362 2.086 8 7l3 1c-5.325-.372-7.607-1.909-11-6z"></path><path fill="#477356" d="m234 301 2 1a334 334 0 0 1-3.25 3.938l-1.828 2.214c-2.03 1.951-3.176 2.465-5.922 2.848 1.382-3.21 2.924-5.05 5.625-7.25l1.914-1.578z"></path><path fill="#3f644b" d="M510 259c1.648 2.967 2.443 5.656 3 9l-6 3q.462-2.72.938-5.437l.527-3.06C509 260 509 260 510 259"></path><path fill="#16261c" d="m539 578 12 9c-9.308-1.27-9.308-1.27-11.25-6.125z"></path><path fill="#40654c" d="m516 571 10 2v-2l3 1c-4 4-4 4-14 1z"></path><path fill="#dc600b" d="M434 560c5.04.445 7.376 2.713 11 6-3.857 1.286-4.13.543-7.187-1.875l-2.168-1.68C434 561 434 561 434 560"></path><path fill="#373d2d" d="M555 803c2.384 3.6 1.922 5.31.25 9.188l-1.11 2.668C553 817 553 817 551 818c.653-3.517 1.514-6.893 2.563-10.312l.816-2.676z"></path><path fill="#314e3a" d="m547.12 716.94 3.32.027 2.555.036v1c-4.842 1.335-8.934 2.253-14 2 0-4.336 4.86-3.098 8.125-3.063"></path><path fill="#446e51" d="M513 548h2l3 8h-5z"></path><path fill="#426c50" d="M417 468c5.07.654 9.42 2.855 14 5v2c-3.76-.581-6.53-1.652-9.812-3.562l-2.395-1.38C417 469 417 469 417 468"></path><path fill="#18281d" d="M155 251v5l-9-1c2.566-2.566 5.315-4 9-4"></path><path fill="#0c0f0f" d="M608 657a705 705 0 0 1-2.875 3.438l-1.617 1.933C602 664 602 664 600 665c-.516-6.368 1.632-8.516 8-8"></path><path fill="#477355" d="M790 332c3 1 3 1 4 7-4-1-4-1-4.562-2.875C789 334 789 334 790 332"></path><path fill="#16251b" d="M349 318v5h-9c6.364-5 6.364-5 9-5"></path><path fill="#3a5c45" d="M510 577h1v7l-8 2c0-2 0-2 2.375-3.375 2.749-1.701 3.504-2.67 4.625-5.625"></path><path fill="#b5490f" d="M505 405v9l-3 1c0-10 0-10 3-10"></path><path fill="#1a2b20" d="M486 600c2 4 2 4 0 7l-5-1z"></path><path fill="#477356" d="m224 313 2 1c-1.37 2.95-2.878 5.525-5 8h-2l2-5h2z"></path><path fill="#436c50" d="m854 248 2 5-8-2c2-3 2-3 6-3"></path><path fill="#1a2b20" d="m658 568 1 3c-1.26 1.2-2.533 2.384-3.812 3.563l-2.145 2.003C651 578 651 578 648 577l1.68-1.46c.724-.633 1.449-1.264 2.195-1.915l2.18-1.898A91 91 0 0 0 658 568"></path><path fill="#576f4f" d="M312 417c3.226 2.15 3.408 2.45 4 6h-2l-1 3a427 427 0 0 1-1.062-3.937l-.598-2.215C311 418 311 418 312 417"></path><path fill="#192a1f" d="m319 341 1 6c-2.49 1.246-3.41.777-6 0 2.8-6 2.8-6 5-6"></path><path fill="#42684f" d="m301 319 2 9c-5.875-4.625-5.875-4.625-7-8 3.875-1 3.875-1 5-1"></path><path fill="#3c5f48" d="m788 290-1 2-2.125-.875c-2.93-1.146-5.884-2.151-8.875-3.125v-1c7.9-1.374 7.9-1.374 12 3"></path><path fill="#3c5e47" d="m538 667 2 2-8 6c0-4.552 2.501-5.303 6-8"></path><path fill="#e5c521" d="m445 569 1 2-6 7-2-1c1.38-4.142 3.598-5.322 7-8"></path><path fill="#602513" d="m410 569 7 5-3 2-5-5z"></path><path fill="#0c0e0f" d="M613 650h8c-2.986 1.991-5.597 2.941-9 4z"></path><path fill="#19291f" d="m639 608 1 4c-6.75 1.25-6.75 1.25-9-1 5.75-3 5.75-3 8-3"></path><path fill="#34523e" d="M649 380c2 1 2 1 2 9l-3-1z"></path><path fill="#b43816" d="M563 381c-3.532 4.562-6.53 4.635-12 5 1.967-1.967 3.545-2.937 6-4.187l2.125-1.106C561 380 561 380 563 381"></path><path fill="#2e4837" d="M697 304h10l-1 4-9-3z"></path><path fill="#0c0c0f" d="m165 270 4 1-1 4-4-1z"></path><path fill="#15241a" d="m664 615 1 6h-7c4.875-6 4.875-6 6-6"></path><path fill="#294433" d="m362 475-7 5c1.177-4.708 2.035-6.655 7-5m-11 7 2 1-2 1z"></path><path fill="#41684d" d="m677 313-1 5-5-1c3.75-4 3.75-4 6-4"></path><path fill="#35543f" d="M387 730c.429 7.571.429 7.571-3 10 1.129-10 1.129-10 3-10"></path><path fill="#1b2c21" d="M445 464c4.209.45 5.623 2.689 8 6l-1 2c-2.647-2.578-4.944-4.916-7-8"></path><path fill="#1f3126" d="M827 309c4.448 0 4.828 2.405 7 6-3.243-.56-4.93-1.413-7-4z"></path><path fill="#18261d" d="m173 304 1 2-6 7c0-4.39 2.128-5.77 5-9"></path><path fill="#41674e" d="M500 585c0 4.165-1.46 4.23-5 6h-2c1.345-4.035 3.244-4.322 7-6"></path><path fill="#122017" d="M442 486c4.875 4.75 4.875 4.75 6 7-4.205-.435-5.147-2.387-7-6z"></path><path fill="#0c0d0f" d="m333 341 4 2-1 3-4-1z"></path><path fill="#273b2f" d="M842 298c4.236.458 5.77 1.361 8 5-6.875-1.625-6.875-1.625-8-5"></path><path fill="#23362a" d="m240.31 293.19 1.688.813c-2.686 2.685-5.377 3.06-9 4 4.43-5.047 4.43-5.047 7.312-4.813"></path><path fill="#446e52" d="M120 243c-1.393 3.367-2.979 4.986-6 7 3.38-7 3.38-7 6-7"></path></svg>